<?xml version="1.0" encoding="UTF-8"?> <!-- Generator: Adobe Illustrator 19.1.0, SVG Export Plug-In . SVG Version: 6.00 Build 0) --> <svg xmlns="http://www.w3.org/2000/svg" xmlns:xlink="http://www.w3.org/1999/xlink" id="Layer_1" x="0px" y="0px" viewBox="0 0 199.9 199.9" style="enable-background:new 0 0 199.9 199.9;" xml:space="preserve"> <style type="text/css"> .st0{fill:#231F20;} .st1{fill:#A48851;} </style> <g> <path class="st0" d="M133.6,145.8l13.1,15.6l-1.7,1.5l-5.5-6.6l3.5,8.3l-1.9,1.5l-3.8-9.4l-9.5-6l1.9-1.5l8.6,5.6l-6.3-7.5 L133.6,145.8z"></path> <path class="st0" d="M134.2,170.7l-2,1.1l-10.3-17.6l2-1.1L134.2,170.7z"></path> <path class="st0" d="M115.5,157.4l6.6,17l2.5-1l0.8,2l-7.1,2.7l-0.8-2l2.5-1l-6.6-17L115.5,157.4z"></path> <path class="st0" d="M103.1,163.3c-0.1,0.4-0.1,0.9,0.1,2l0.6,3.3l-2.2,0.4l-0.6-3.4c-0.3-1.7-0.2-2.7,0.1-3.3 c0.3-0.6,0.9-1.5,2.5-1.8c1.5-0.3,2.4,0.4,2.9,0.9c1,1,1.2,2.6,1.4,3.6l2,11c0.2,1.2,0.4,2.3-0.1,3.4c-0.3,0.6-1,1.5-2.6,1.8 c-1,0.2-1.9,0-2.7-0.7c-1-1-1.2-2.6-1.4-3.5l-0.4-2.2l2.1-0.4l0.5,3c0.1,0.5,0.2,1.1,0.6,1.5c0.2,0.2,0.5,0.3,1,0.2 s0.7-0.3,0.8-0.6c0.2-0.5,0.1-1.1,0-1.6l-2.2-12c-0.2-1-0.3-1.6-0.6-1.9c-0.1-0.2-0.5-0.4-1-0.3S103.2,163.1,103.1,163.3z"></path> <path class="st0" d="M92.9,171.6l0.3-9.9l2.3,0.1l-0.5,20.4l-2.3-0.1l0.2-8.3l-2.4-0.1l-0.2,8.3l-2.3-0.1l0.5-20.4l2.3,0.1 l-0.3,9.9L92.9,171.6z"></path> <path class="st0" d="M78.6,180.7l-5.8-1.3l0.5-2.1l3.6,0.8l1.4-6.2l-2.3-0.5l0.5-2.1l2.3,0.5l1.7-7.3l-3.6-0.8l0.5-2.1l5.8,1.3 L78.6,180.7z"></path> <path class="st0" d="M64.7,171.6L64.7,171.6l0.7-1.7l5.6-12.5l2.1,0.9l-8.3,18.6l-2.9-1.3l3.7-14.9l-0.1,0l-0.6,1.6l-5.5,12.2 l-2.1-0.9l8.3-18.6l2.8,1.2L64.7,171.6z"></path> <path class="st0" d="M48.7,144.6c-0.4,0.1-0.8,0.5-1.6,1.2l-2.4,2.3l-1.6-1.6l2.5-2.4c1.3-1.2,2.2-1.6,2.8-1.7 c0.7-0.1,1.8-0.1,2.9,1.1c1,1.1,1,2.2,0.9,2.9c-0.3,1.4-1.5,2.5-2.2,3.2l-8.1,7.7c-0.9,0.8-1.7,1.6-2.9,1.8c-0.7,0.1-1.8,0-2.9-1.2 c-0.7-0.7-1.1-1.6-0.9-2.7c0.2-1.4,1.5-2.5,2.2-3.1l1.6-1.6l1.5,1.6l-2.2,2.1c-0.3,0.3-0.8,0.8-0.9,1.3c0,0.3,0,0.6,0.4,1 c0.3,0.3,0.7,0.4,0.9,0.4c0.5-0.1,1-0.5,1.3-0.8l8.8-8.5c0.8-0.7,1.1-1.1,1.2-1.5c0.1-0.2,0.1-0.6-0.3-1.1 C49.3,144.5,48.9,144.6,48.7,144.6z"></path> <path class="st0" d="M28.6,148.3l-3.3-5l1.8-1.2l2,3.1l5.3-3.5l-1.3-2l1.8-1.2l1.3,2l6.3-4.1l-2-3.1l1.8-1.2l3.3,5L28.6,148.3z"></path> <path class="st0" d="M38.5,123.7c-0.4,0.5-0.9,0.8-2.1,1.3l-4.5,1.8c-0.5,0.2-1,0.4-1.3,0.8c-0.2,0.3-0.3,0.9-0.1,1.3l0.2,0.6 l8.7-3.5l0.9,2.1l-18.8,7.7l-1.3-3.2c-0.3-0.7-0.6-1.9,0.2-3.1c0.6-0.9,1.7-1.4,2.3-1.6l2.3-0.9c0.8-0.3,1.7-0.6,2.6-0.4 c0.5,0.1,0.9,0.5,1.2,1l0.1,0c0-0.5,0.1-1,0.2-1.2c0.5-1,1.5-1.4,2.1-1.7l4-1.6c1.2-0.5,1.9-0.8,2.3-1.6l0.1-0.1L38.5,123.7z M28.5,129.7c-0.1-0.3-0.4-0.9-1-1c-0.2-0.1-0.6-0.1-1.6,0.3l-2.6,1.1c-0.4,0.2-0.9,0.4-1.2,0.9c-0.2,0.5,0,1.1,0.1,1.4l0.3,0.7 l6.2-2.5L28.5,129.7z"></path> <path class="st0" d="M16.4,121.1l-1.2-5.9l2.1-0.4l0.7,3.7l6.2-1.2l-0.5-2.3l2.1-0.4l0.5,2.3l7.4-1.5l-0.7-3.7l2.1-0.4l1.2,5.9 L16.4,121.1z"></path> <path class="st0" d="M34.7,102.5l-16.5,1.8l0,0.1l2.7-0.1l13.8,0.4l-0.1,2.3l-20.4-0.5l0.1-3.5l13.1-1.4l0-0.1l-13-2.1l0.1-3.5 l20.4,0.5l-0.1,2.3l-13.8-0.4L18.4,98l0,0.1l16.4,2.7L34.7,102.5z"></path> <path class="st0" d="M35.1,90.5c-1.3,0.5-2.6,0.1-3.7-0.2l-11-2.9c-1-0.3-2.4-0.6-3.3-1.6c-0.3-0.4-0.9-1.4-0.5-2.9 c0.4-1.5,1.4-2.1,1.8-2.3c1.3-0.5,2.6-0.1,3.7,0.2l11,2.9c1,0.3,2.4,0.6,3.3,1.6c0.3,0.4,0.9,1.4,0.5,2.9 C36.6,89.8,35.6,90.3,35.1,90.5z M32.5,88.3c1,0.3,1.3,0.3,1.6,0.2c0.3-0.1,0.7-0.3,0.8-0.8c0.1-0.5,0-0.9-0.3-1.1 c-0.2-0.2-0.5-0.3-1.5-0.6l-12-3.1c-1-0.3-1.3-0.3-1.6-0.2c-0.3,0.1-0.7,0.3-0.8,0.8c-0.1,0.5,0,0.9,0.3,1.1 c0.2,0.2,0.5,0.3,1.5,0.6L32.5,88.3z"></path> <path class="st0" d="M26.4,71L26.4,71l1.7,0.8l12.2,6.2l-1,2l-18.1-9.2l1.5-2.9l14.7,4.5l0-0.1l-1.6-0.6l-11.9-6.1l1-2L43,72.8 l-1.4,2.7L26.4,71z"></path> <path class="st0" d="M47.3,66.8l-6.6-5.4l-11.1-5.1l1.5-1.8l7.3,3.7l0.6,0.4l0.1-0.1l-0.5-0.5l-5-6.4l1.5-1.8l7.2,9.9l6.6,5.4 L47.3,66.8z"></path> </g> <rect x="7.9" y="96.1" transform="matrix(0.7086 0.7056 -0.7056 0.7086 97.1147 -42.4098)" class="st0" width="184" height="0.5"></rect> <g> <path class="st1" d="M81.2,42.2c0.1,0,0.1-0.1,0.2-0.1c0.1,0,0.1,0.2,0.1,0.3c-0.1,0.3,0,0.5-0.1,0.8c0,0.2,0,0.5-0.1,0.8 c-0.1,0.5-0.2,1.1-0.3,1.6c-0.1,0.7-0.3,1.5-0.5,2.2c-0.1,0.5-0.3,0.9-0.5,1.3c-0.2,0.5-0.5,1-0.7,1.5c0,0.1,0,0.1,0,0.1 c-0.2,0.4-0.5,0.9-0.7,1.2c-0.3,0.5-0.7,1.1-1.2,1.5c-0.3,0.3-0.5,0.5-0.9,0.7c-0.3,0.2-0.6,0.4-1,0.6c-0.3,0-0.5,0.2-0.8,0.3 c-0.4,0.1-0.7,0.1-1.1,0.1c-0.4,0-0.8,0-1.2-0.1c-0.4-0.1-0.8-0.2-1.2-0.3c-0.3-0.1-0.5-0.2-0.8-0.3c-0.6-0.3-1.1-0.7-1.6-1.2 c-0.4-0.3-0.7-0.7-1.1-1c-0.4-0.5-0.8-1-1.2-1.5c-0.4-0.5-0.7-1-1-1.5c-0.2-0.3-0.4-0.7-0.6-1c-0.2-0.4-0.4-0.8-0.6-1.2 c-0.2-0.4-0.4-0.8-0.6-1.2c-0.2-0.1-0.1-0.4-0.2-0.5c-0.2-0.1-0.1-0.4-0.2-0.6c-0.2-0.3-0.2-0.7-0.4-1c-0.1-0.1-0.1-0.4-0.2-0.5 c-0.1-0.3-0.2-0.6-0.3-0.9c-0.1-0.2-0.2-0.3-0.2-0.5c-0.1-0.2-0.1-0.3-0.1-0.5c-0.2-0.3-0.2-0.6-0.3-0.9c-0.2-0.6-0.3-1.3-0.4-2 c-0.2-0.6-0.3-1.3-0.4-2c0-0.3,0-0.5-0.1-0.8c0-0.2-0.1-0.5-0.1-0.8c0-0.3-0.1-0.6,0-0.8c0-0.3-0.1-0.5-0.1-0.8 c0-0.2-0.1-0.5-0.1-0.7c0-0.2-0.1-0.4,0-0.6c0-0.2-0.1-0.4-0.1-0.6c0-0.4,0-0.8,0-1.1c0-0.1,0-0.2,0-0.3c0-0.1,0-0.2,0-0.3 c0-0.1-0.1-0.3,0-0.3c-0.1-0.2,0-0.4,0-0.6c0-0.2-0.1-0.4,0-0.5c0.1-0.2-0.1-0.4,0-0.5c-0.1-0.2,0-0.3,0-0.5c0-0.4,0-0.8,0-1.2 c0-0.3,0-0.7,0.1-1.1c0-0.3,0-0.6,0-0.9c0.1-0.7,0.1-1.3,0.2-1.9c0.1-0.3,0.2-0.7,0.2-1.1c0.2-0.9,0.4-1.9,0.7-2.8 c0.2-0.5,0.4-1.1,0.6-1.6c0.2-0.2,0.2-0.5,0.4-0.8c0.3-0.5,0.7-0.9,1.1-1.3c0.2-0.1,0.3-0.2,0.5-0.2c0.4-0.2,0.8-0.3,1.2-0.3 c0.1,0,0.1,0,0.2,0c0.4,0,0.6,0.2,0.9,0.3c0.3,0.1,0.5,0.3,0.7,0.6c0.1,0.2,0.3,0.4,0.4,0.6c0.2,0.2,0.3,0.4,0.5,0.7 c0.2,0.4,0.4,0.8,0.6,1.2c0.2,0.3,0.4,0.7,0.4,1.1c0.2,0.1,0.1,0.4,0.2,0.5c0.1,0.2,0.1,0.4,0.2,0.5c0.3,0.4,0.2,1,0.4,1.5 c0.1,0.4,0.2,0.8,0.1,1.2c-0.1,0.4-0.1,0.9-0.4,1.3c-0.2-0.1-0.4-0.1-0.6-0.2c-0.3,0-0.3-0.1-0.3-0.4c0.1-0.3,0.2-0.6,0.1-1 c0-0.1,0-0.2,0-0.2c-0.1-0.5-0.2-1-0.3-1.5c-0.1-0.2-0.1-0.3-0.1-0.4c-0.1-0.2-0.1-0.3-0.2-0.4C68,19,68,18.8,67.9,18.7 c-0.1-0.3-0.2-0.5-0.4-0.7c-0.1-0.2,0-0.3-0.2-0.3c-0.1-0.4-0.4-0.7-0.6-1.1c-0.1-0.3-0.3-0.4-0.5-0.7c0-0.1-0.1-0.2-0.2-0.2 c-0.2-0.2-0.3-0.5-0.5-0.6c-0.1,0-0.2-0.1-0.3-0.1c0,0,0,0-0.1,0c-0.6,0.4-0.9,0.8-1.3,1.5c-0.1,0.1-0.1,0.3-0.2,0.4 c-0.4,0.8-0.6,1.7-0.8,2.5c-0.2,0.7-0.3,1.5-0.4,2.2c-0.1,0.3-0.1,0.6-0.2,0.9c0,0.4-0.1,0.8-0.1,1.3c0,0.6-0.1,1.2-0.1,1.8 c-0.1,0.2,0.1,0.3,0,0.5c-0.1,0.1,0,0.3,0,0.5c0,0.2,0,0.3,0,0.5c0,0.2,0,0.3,0,0.4c-0.1,0.1,0.1,0.3,0,0.5c-0.1,0.1,0,0.2,0,0.4 c-0.1,0.2,0,0.3,0,0.6c0,0.1,0,0.2,0,0.3c0,0.1,0.1,0.2,0,0.3c0,0,0,0.1,0,0.1c0.1,0.4-0.1,0.8,0.1,1.3c-0.1,0.2,0.1,0.3,0,0.5 c0,0.2,0,0.4,0.1,0.5c0,0.2,0,0.3,0,0.5c0.1,0.2,0.1,0.3,0,0.5c0.1,0.4,0.1,0.7,0.1,1.1c0.1,0.2,0,0.4,0,0.6 c0.1,0.2,0.1,0.4,0.1,0.6c0,0.4,0.1,0.7,0.1,1.1c0.1,0.4,0.1,0.9,0.2,1.3c0.2,0.5,0.2,0.9,0.3,1.4c0,0.3,0.2,0.5,0.3,0.8 c0,0.2,0,0.6,0.1,0.8c0.2,0.3,0.1,0.6,0.2,0.9c0.1,0.2,0.2,0.3,0.2,0.5c0,0.1,0,0.3,0.1,0.4c0,0,0,0.1,0,0.1c0,0.3,0.1,0.5,0.2,0.8 c0.2,0.3,0.2,0.6,0.4,0.9c0.2,0.1,0.1,0.4,0.2,0.6c0.1,0.1,0.1,0.3,0.2,0.5c0.1,0.2,0.2,0.6,0.4,0.9c0.1,0.3,0.2,0.6,0.4,0.9 c0.1,0.2,0.2,0.5,0.3,0.6c0.2,0.2,0.3,0.4,0.4,0.6c0.1,0.2,0.2,0.4,0.3,0.6c0.1,0.2,0.2,0.4,0.3,0.6c0.1,0.1,0.2,0.3,0.4,0.5 c0.2,0.3,0.4,0.6,0.6,0.8c0.4,0.6,0.8,1.1,1.4,1.6c0.4,0.3,0.8,0.7,1.2,1c0.3,0.2,0.7,0.5,1,0.6c0.4,0.2,0.8,0.3,1.2,0.2 c0.1,0,0.2,0,0.3,0c0.1,0,0.2-0.1,0.3-0.1l0.1,0c0.2-0.2,0.5-0.2,0.7-0.3c0.1-0.2,0.2-0.1,0.3-0.2c0.1-0.1,0.3-0.2,0.4-0.3 c0.1-0.1,0.3-0.3,0.4-0.4c0.3-0.3,0.6-0.7,0.9-1c0.2-0.3,0.4-0.6,0.6-0.9c0.4-0.7,0.8-1.4,1-2.1c0.2-0.5,0.4-1.1,0.6-1.6 c0-0.1,0.1-0.2,0.1-0.3c0.1-0.5,0.4-1,0.4-1.5c0.2-0.6,0.4-1.3,0.4-2c0-0.3,0.2-0.6,0.2-0.8c0-0.2,0.1-0.4,0.4-0.5 c0,0,0.3-0.1,0.4-0.1c0.1,0,0.1,0,0.1,0c0.1,0,0.1,0,0.1,0C81.2,42.1,81.2,42.1,81.2,42.2z"></path> <path class="st1" d="M89.8,31.3c-0.5,0.2-0.9,0.5-1.5,0.7c-0.3,0.2-0.7,0.4-1,0.5c-0.4,0.2-0.8,0.4-1.2,0.6 c-0.2,0.1-0.3,0.2-0.5,0.2c-0.1,0-0.2,0.1-0.1,0.2c0,0.3-0.1,0.6-0.1,0.9c0,0.2-0.1,0.5-0.1,0.7c0,0.2-0.1,0.4-0.1,0.6 c-0.1,0.3-0.3,0.6-0.3,0.9c-0.1,0.3-0.3,0.5-0.4,0.8c-0.2,0.2-0.3,0.5-0.5,0.7c-0.2,0.1-0.3,0.2-0.5,0.4c-0.2,0.3-0.6,0.3-0.9,0.5 c-0.3,0-0.6,0.3-0.9,0.1c-0.6,0.1-1-0.2-1.5-0.3c-0.6-0.1-1-0.5-1.4-0.9c-0.1-0.2-0.3-0.4-0.4-0.6c-0.1-0.2-0.2-0.5-0.3-0.7 c-0.1-0.2-0.1-0.4-0.2-0.7c-0.2-0.4-0.1-0.9-0.2-1.4c0-0.1,0-0.3,0.1-0.5c0-0.1-0.1-0.3,0-0.4c0-0.3,0-0.6,0-0.8 c0.1-0.5,0.2-0.9,0.3-1.3c0.1-0.6,0.3-1.1,0.5-1.7c0.2-0.4,0.3-0.8,0.5-1.2c0.3-0.5,0.6-1,0.9-1.4c0.2-0.3,0.4-0.6,0.7-0.7 c0.4-0.3,1-0.4,1.1-0.4c0.5-0.1,0.9,0.1,1.3,0.4c0.3,0.2,0.5,0.5,0.7,0.9c0.2,0.3,0.4,0.6,0.5,0.9c0.1,0.3,0.3,0.5,0.4,0.8 c0.2,0.3,0.3,0.6,0.4,1c0.1,0.3,0.2,0.5,0.3,0.8c0.1,0.3,0.1,0.7,0.2,1c0.4-0.2,0.7-0.3,1-0.4c0.5-0.3,1-0.5,1.5-0.7 c0.6-0.4,1.2-0.6,1.8-0.9c0-0.1,0.5-0.3,0.5-0.4c1.3-0.9,1-1.7,1.1-1.7c0-0.1-0.1,1.3-0.1,1.3c0.1,0,0.1,0,0-0.1c0.1,0,0.1,0,0.1,0 l0.1,0l0.1,0c0.1,0,0.1,0,0.1,0c0.1,0,0.1,0,0.1,0c0,0,0,0,0.1,0c0,0,0,0,0.1,0c0.1,0,0.1,0,0.1,0c0.1,0,0.1,0,0.1,0l0.1,0l0,0.1 c0,0,0,0.1,0.1,0l0,0.1c0,0,0,0,0,0.1l0,0.1c0,0.1,0,0.1,0,0.1c0,0.1,0,0.1,0,0.1l-0.1,0c0,0.1,0,0.1,0,0.1c-0.1,0,0,0.1,0,0.1 c0,0.1,0,0.1,0,0.1c0,0.1-0.3-0.2-0.3-0.2C91.5,30.4,90.1,31.1,89.8,31.3z M83.5,30.3c-0.1-0.2-0.1-0.4-0.2-0.6 c-0.1-0.2-0.2-0.4-0.3-0.7c-0.2-0.4-0.4-0.9-0.7-1.3c0-0.1-0.5-0.5-1,0.2c-0.1,0.2-0.2,0.3-0.3,0.5c-0.1,0.2-0.3,0.5-0.3,0.8 c0,0.2-0.1,0.4-0.1,0.6c0,0.2,0,0.4,0,0.7c0,0.1,0,0.3,0.1,0.4c0,0.2,0,0.3,0.1,0.4c0.1,0.2,0.2,0.5,0.4,0.7 c0.3,0.2,0.5,0.4,0.9,0.6c0.4,0.1,0.7,0.3,1.1,0.3c0.1,0,0.1,0,0.2,0c0.3,0.1,0.5-0.1,0.4-0.4C83.7,31.7,83.7,30.9,83.5,30.3z M83.7,33.7c-0.7,0-1.4-0.3-2.1-0.5c-0.7-0.4-1.3-0.8-1.7-1.5c-0.1,0.6-0.3,1-0.3,1.6c0,0.3-0.1,0.6-0.1,0.8c0,0.3-0.1,0.6,0,0.9 c0,0.2,0.1,0.4,0.1,0.7c0,0.3,0.1,0.6,0.2,0.9c0.1,0.1,0.1,0.3,0.2,0.4c0.1,0.3,0.3,0.6,0.6,0.8c0.1,0.2,0.3,0.2,0.4,0.2 c0.4,0,0.7-0.3,1-0.5c0.3-0.3,0.7-0.6,0.9-0.9c0.3-0.4,0.4-0.9,0.6-1.4c0.1-0.2,0.2-0.5,0.2-0.8C83.7,34.3,83.8,34,83.7,33.7z"></path> <path class="st1" d="M109.1,32c-0.2,0.3-0.5,0.5-0.7,0.8c-0.2,0.3-0.4,0.6-0.7,0.9c-0.2,0.2-0.4,0.4-0.6,0.7 c-0.4,0.4-0.7,0.8-1.1,1.3c-0.2,0.2-0.4,0.5-0.6,0.7c-0.2,0.3-0.4,0.6-0.7,0.9c-0.3,0.3-0.5,0.6-0.7,0.9c-0.2,0.3-0.6,0.6-0.8,1 c-0.3,0.4-0.6,0.7-0.9,1.1c-0.2,0.2-0.4,0.3-0.5,0.5c-0.1,0.1-0.1,0.1-0.2,0.2c-0.3,0.1-0.3,0.1-0.7-0.1c-0.3-0.1-0.5-0.3-0.8-0.5 c-0.2-0.1-0.4-0.3-0.5-0.5c-0.1-0.4-0.3-0.8-0.3-1.2c-0.1-0.5-0.2-0.9-0.2-1.3c-0.2-0.2,0-0.3-0.1-0.5c0-0.2,0-0.4,0-0.6 c0-0.2,0-0.3-0.1-0.4c0-0.2,0-0.3,0-0.4c0-0.1,0-0.3,0-0.4c-0.1-0.3,0-0.7-0.1-1.1c0-0.2,0-0.3,0-0.5c-0.1-0.2,0-0.5-0.1-0.7 c0-0.1,0-0.2,0-0.3c0-0.1,0.1-0.2,0-0.3c-0.1-0.1,0-0.1,0-0.2c0-0.2,0-0.5-0.1-0.7c0-0.2,0.1-0.3,0-0.5c0-0.3-0.1-0.6-0.1-0.9 c-0.1-0.5-0.1-1.1-0.4-1.7c-0.3,0.3-0.6,0.6-0.8,0.8c-0.5,0.5-1,1.1-1.4,1.7c-0.3,0.4-0.6,0.8-0.9,1.1c-0.4,0.5-0.7,1-1,1.5 c-0.3,0.4-0.5,0.7-0.7,1.2c0,0.1-0.1,0.2-0.1,0.3c-0.3,0.5-0.5,1-0.8,1.5c-0.1,0.2-0.1,0.3-0.3,0.5c-0.1,0.1-0.2,0.1-0.3,0.1 c-0.2-0.2-0.5-0.3-0.7-0.5c-0.2-0.1-0.2-0.2-0.2-0.4c0-0.3,0-0.5,0-0.8c0-0.4,0-0.8,0-1.2c0-0.4,0.1-0.8,0-1.2 c0-0.4,0.1-0.8,0.1-1.3c0-0.4,0-0.8,0.1-1.3c0.2-0.7,0.2-1.4,0.3-2.1c0-0.3,0.1-0.5,0.1-0.9c0-0.1,0.1-0.2,0.1-0.4 c0.1-0.3,0.1-0.3,0.5-0.2c0.2,0,0.4,0.1,0.5,0.2c0.1,0.1,0.2,0.1,0.2,0.2c0,0.2,0,0.3,0,0.4c-0.1,0.1-0.1,0.2-0.1,0.3 c0,0.2,0,0.4-0.1,0.7l-0.2,2.4c0.1,0.3,0,0.5,0,0.8c-0.1,0.6-0.1,1.2-0.2,1.8c0.2-0.1,0.2-0.3,0.3-0.4c0.2-0.3,0.4-0.5,0.6-0.8 c0.1-0.2,0.3-0.4,0.4-0.6c0.4-0.5,0.7-0.9,1-1.4c0.4-0.5,0.8-1,1.1-1.5c0.3-0.4,0.5-0.7,0.8-1c0.2-0.2,0.4-0.5,0.6-0.7 c0.2-0.1,0.3-0.2,0.5-0.3c0.2-0.1,0.3-0.1,0.6-0.1c0.2,0,0.5,0.1,0.7,0.2c0.1,0.1,0.2,0.1,0.3,0.2c0.5,0.5,0.8,1,1,1.7 c0.1,0.3,0.1,0.6,0.2,0.9c0.1,0.2,0.1,0.5,0.2,0.7c0,0.3,0.1,0.5,0,0.7c0.2,0.1,0,0.3,0.1,0.5c0,0.3,0.1,0.7,0.1,1 c0,0.3,0.1,0.7,0.1,1c0,0.2,0,0.5,0,0.7c0,0.1,0,0.2,0,0.3c0,0.1,0,0.2,0,0.3c0,0.2,0,0.3,0.1,0.5c0,0.2,0,0.5,0,0.7 c0,0.2,0,0.4,0.1,0.5c0.1,0.2,0,0.4,0.1,0.6c0,0.1,0,0.3,0,0.4c0.1,0.3,0,0.7,0.1,1.1c0.1-0.1,0.1,0,0.2,0c0.3-0.4,0.6-0.7,0.9-1.1 c0.2-0.3,0.6-0.6,0.9-1c0.3-0.4,0.6-0.7,0.9-1.1c0.1-0.1,0.3-0.3,0.4-0.4c0.2-0.3,0.5-0.6,0.8-0.9c0.1-0.2,0.3-0.3,0.4-0.4 c0.2-0.3,0.5-0.6,0.8-0.9c0.2-0.3,0.5-0.5,0.7-0.8c0.3-0.3,0.6-0.6,0.9-0.9c0.2-0.2,0.3-0.3,0.5-0.3c0.2,0,0.7,0.1,0.7,0.3l0,0.1 c0,0,0,0,0,0.1c0,0.1,0,0.1,0,0.2c0,0.1,0,0.1,0,0.1c0,0.1,0,0.1,0,0.1c0,0.1,0,0.1,0,0.1C109.1,31.9,109.1,31.9,109.1,32 C109.1,31.9,109.1,31.9,109.1,32C109.1,31.9,109.1,31.9,109.1,32z"></path> <path class="st1" d="M114.3,37.1c-0.3,0.4-0.6,0.7-1,1.1c-0.6,0.5-1.2,0.9-1.9,1.3c-0.4,0.2-0.8,0.1-1.2,0c-0.1,0-0.1-0.1-0.2-0.1 c-0.2-0.3-0.6-0.5-0.7-0.9c-0.1-0.3-0.2-0.6-0.2-0.9c0-0.3,0.1-0.7,0.1-1c0-0.2,0.1-0.3,0.2-0.5c0-0.1,0.1-0.2,0.1-0.4l0-0.1 c0.1-0.1,0.1-0.2,0.2-0.4c0.1-0.3,0.2-0.7,0.4-1c0.2-0.3,0.3-0.6,0.6-1c0.2-0.2,0.4-0.5,0.5-0.8c0.2-0.3,0.4-0.5,0.6-0.7 c0.3-0.3,0.6-0.6,0.9-0.9c0.3-0.3,0.7-0.5,1-0.8c0.4-0.2,0.9-0.3,1.2-0.5c0.3,0,0.7-0.1,1-0.1c0.2,0,0.5,0.1,0.8,0.2 c0.3,0.2,0.6,0.4,0.8,0.7c0.1,0.1,0.1,0.2,0.1,0.3c0.1,0.2,0.2,0.4,0,0.6c-0.1,0.2-0.1,0.3-0.1,0.4c0,0.1-0.1,0.2-0.2,0.3 c-0.2-0.1-0.5-0.4-0.5-0.6c-0.1-0.1,0-0.2,0-0.4c0-0.1,0-0.2,0-0.3c-0.4-0.1-0.8,0-1.1,0.1c-0.3,0.1-0.5,0.2-0.8,0.3 c-0.5,0.3-1,0.8-1.5,1.2c-0.4,0.5-0.8,1-1.2,1.4c-0.2,0.3-0.4,0.6-0.5,0.9c-0.1,0.1-0.1,0.3-0.2,0.3c-0.1,0.1-0.1,0.2-0.2,0.4 c-0.4,0.5-0.4,1.1-0.6,1.7c-0.2,0.3-0.1,0.7-0.2,1c0,0.1,0.1,0.2,0.2,0.2c0.2,0,0.4-0.1,0.5-0.2c0.5-0.2,0.9-0.5,1.3-0.8 c0.3-0.2,0.5-0.5,0.8-0.7c0.2-0.2,0.5-0.5,0.7-0.8c0.3-0.3,0.6-0.6,0.8-0.9c0.5-0.6,1-1.3,1.5-2c0-0.1,0.2-0.2,0.3-0.3 c0.3,0.1,0.5,0.1,0.7,0.3c0.1,0,0.1,0.1,0.1,0.1c0.3,0.3,0.4,0.7,0.3,1c-0.1,0.5-0.2,0.9-0.3,1.4c-0.1,0.4-0.2,0.9-0.4,1.3 c-0.3,1-0.7,2-1,2.9c0,0.1-0.1,0.2-0.1,0.4c0.6-0.5,1.2-0.9,1.8-1.3c0.4-0.2,0.7-0.5,1-0.6c0.5-0.3,1-0.6,1.4-1 c0.3-0.2,0.7-0.4,1-0.7c0.3-0.2,1.1-0.6,1.8-1.4c0.2-0.2-0.2,0.7,0,0.9c0.3,0.2,0.3,0.2,0.5,0.6c-0.1,0.2-0.2,0.3-0.3,0.3 c-0.2,0-0.3,0.1-0.4,0.2c-0.2,0.1-0.3,0.2-0.5,0.3c-0.5,0.4-1.1,0.7-1.7,1.1c-0.5,0.3-0.9,0.6-1.4,0.9c-0.3,0.3-0.7,0.5-1,0.7 c-0.4,0.3-0.8,0.6-1.2,0.9c-0.4,0.3-0.8,0.6-1.2,0.9c-0.2,0.2-0.4,0.3-0.6,0.5c-0.1,0-0.1,0.1-0.1,0.2c-0.1,0.4-0.4,0.8-0.5,1.2 c-0.1,0.5-0.4,1-0.5,1.5c-0.2,0.2-0.2,0.5-0.3,0.8c-0.1,0.2-0.2,0.5-0.3,0.8c-0.1,0.1-0.2,0.3-0.3,0.5c-0.1,0.2-0.1,0.4-0.2,0.6 c-0.2,0.2-0.2,0.5-0.4,0.8c-0.2,0.2-0.2,0.5-0.4,0.8c-0.1,0.2-0.1,0.3-0.2,0.3c-0.1,0.2,0,0.3-0.2,0.3c0,0.1,0,0.1,0,0.1 c-0.1,0.2-0.1,0.3-0.2,0.5c-0.1,0.1-0.1,0.2-0.2,0.4c-0.2,0.2-0.2,0.5-0.3,0.6c0,0.1-0.1,0.2-0.2,0.3c0,0.1-0.1,0.2-0.1,0.2 c-0.1,0.1-0.1,0.3-0.2,0.5c-0.2,0.1-0.2,0.3-0.3,0.5c-0.2,0.1-0.1,0.3-0.3,0.4c-0.1,0.3-0.3,0.5-0.4,0.8c-0.2,0.3-0.4,0.5-0.5,0.8 c-0.2,0.3-0.5,0.6-0.7,1c-0.1,0.2-0.2,0.4-0.4,0.6c-0.2,0.1-0.3,0.3-0.5,0.5c-0.1,0.2-0.3,0.3-0.4,0.5c-0.4,0.4-0.8,0.9-1.3,1.3 c-0.2,0.3-0.6,0.6-0.9,0.9c-0.4,0.3-0.9,0.6-1.3,0.8c-0.3,0.1-0.5,0.1-0.7,0.2c-0.4,0.1-0.7,0-1-0.3c-0.3-0.4-0.7-0.6-0.9-1.1 c-0.2-0.4-0.2-0.6-0.2-1c0-0.5,0.1-0.9,0.3-1.3c0.1-0.2,0.2-0.5,0.2-0.7c0-0.2,0.1-0.3,0.2-0.4c0.1-0.2,0.1-0.3,0.2-0.4 c0.1-0.1,0.1-0.3,0.2-0.5c0.1-0.1,0.2-0.3,0.3-0.4c0.1-0.1,0.1-0.3,0.2-0.3c0.2-0.5,0.5-0.8,0.7-1.2c0.3-0.4,0.5-0.8,0.8-1.1 c0.2-0.3,0.5-0.6,0.7-1c0.2-0.3,0.5-0.5,0.7-0.9c0.3-0.3,0.5-0.5,0.7-0.8c0.3-0.3,0.5-0.6,0.8-0.8c0.4-0.3,0.6-0.7,0.9-1.1 c0.6-0.6,1.2-1.2,1.7-1.8c0.3-0.3,0.6-0.6,0.9-0.9c0.3-0.3,0.6-0.6,0.9-0.9c0.4-0.4,0.8-0.8,1.2-1.2c0.2-0.2,0.5-0.4,0.8-0.7 c0-0.1,0.1-0.1,0.1-0.2c0.2-0.7,0.6-1.4,0.8-2.1c0.1-0.6,0.3-1.1,0.5-1.6c0.4-0.7,0.5-1.4,0.8-2.1c0-0.1,0-0.1,0.1-0.2 c0,0-0.1,0,0-0.1C115,36.3,114.6,36.7,114.3,37.1z M103.2,58.8c0.4-0.3,0.7-0.6,1.1-1c0.5-0.4,0.7-0.8,1.2-1.2 c0.1-0.3,0.4-0.5,0.5-0.7c0.1-0.2,0.4-0.5,0.5-0.7c0.3-0.4,0.6-0.8,0.8-1.2c0.2-0.3,0.4-0.5,0.5-0.8c0.2-0.1,0.1-0.3,0.3-0.4 c0.1-0.1,0.2-0.3,0.3-0.4c0.1-0.1,0.1-0.2,0.2-0.5c0.2-0.1,0.1-0.3,0.2-0.4c0.1-0.1,0.2-0.3,0.3-0.4c0.1-0.3,0.3-0.6,0.4-0.9 c0.1-0.1,0.1-0.3,0.2-0.5c0.1-0.1,0.2-0.3,0.3-0.5c0.1-0.1,0.1-0.3,0.2-0.5c0.1-0.1,0.1-0.4,0.2-0.5c0.1-0.2,0.2-0.6,0.4-0.8 c0,0,0-0.1,0-0.1c0.1-0.1,0.1-0.2,0.2-0.4c0-0.1,0.1-0.2,0.2-0.3c0.2-0.3,0.3-0.7,0.4-1c0-0.1,0-0.1,0-0.1c0.2-0.1,0.1-0.2,0.2-0.4 c-0.3,0.3-0.6,0.7-1,1c-0.3,0.3-0.6,0.6-0.9,1c-0.4,0.4-0.8,0.8-1.2,1.2c-0.4,0.4-0.8,0.9-1.3,1.4c-0.1,0.1-0.2,0.2-0.3,0.4 c-0.3,0.4-0.7,0.8-1.1,1.3c-0.2,0.3-0.4,0.6-0.7,0.8c-0.4,0.5-0.8,1-1.2,1.5c-0.1,0.2-0.3,0.4-0.4,0.7c-0.2,0.3-0.5,0.5-0.5,0.9 c-0.2,0.1-0.2,0.3-0.3,0.4c-0.1,0.1-0.1,0.3-0.2,0.4c-0.1,0.2-0.2,0.3-0.3,0.5c-0.1,0.2-0.1,0.4-0.2,0.5c-0.1,0.2-0.2,0.3-0.2,0.5 c-0.1,0.3-0.3,0.7-0.3,1.1c0,0.3-0.1,0.5-0.1,0.7C102.3,59.4,102.8,59.1,103.2,58.8z"></path> <path class="st1" d="M125.2,33.6c-0.2,0.4-0.3,0.8-0.5,1.3c-0.1,0.2-0.2,0.6-0.4,0.8c-0.1,0.2-0.2,0.5-0.4,0.7 c-0.1,0.2-0.2,0.4-0.3,0.6c-0.1,0.2-0.2,0.4-0.3,0.6c-0.1,0.2-0.2,0.4-0.3,0.6c-0.1,0.2-0.1,0.4-0.3,0.5c-0.2,0.2-0.1,0.4-0.3,0.5 c-0.2,0.2-0.2,0.5-0.5,0.8c0,0-0.1,0.1-0.1,0.2c0.5-0.3,0.9-0.7,1.4-0.9c0.5-0.3,1.1-0.5,1.6-0.8c0.2-0.1,1.2-0.3,1.6-0.3 c0.4,0,0.7-0.1,1.4,0c0.3,0.1,0.8,0.1,1.1,0.4c0.2,0.1,0.7,0.8,0.4,1.5c-0.1,0.1-0.1,0.3-0.2,0.5c-0.1,0.1-0.2,0.1-0.3,0.1l0,0 c-0.1-0.3,0.2-0.9-0.3-1.1c-0.3-0.2-0.6-0.1-1-0.1c-0.3,0-0.6,0-0.8,0.1c-0.4,0-1.5,0.4-1.7,0.5c-0.4,0.2-0.8,0.4-1.2,0.7 c-0.2,0.1-0.5,0.3-0.7,0.4c-0.5,0.3-0.9,0.7-1.3,1c-0.3,0.2-0.5,0.5-0.8,0.8c-0.3,0.2-0.5,0.5-0.7,0.8c-0.3,0.3-0.5,0.6-0.8,0.9 c-0.1,0.1-0.1,0.2-0.2,0.3c-0.1,0.2-0.2,0.3-0.4,0.5c-0.2,0.2-0.6-0.2-0.6-0.2c-0.1-0.2-0.2-0.3-0.3-0.4c-0.2-0.2-0.2-0.3-0.2-0.5 c0-0.2,0.1-0.4,0.2-0.5c0,0,0.1-0.1,0.1-0.2c0.1-0.2,0.1-0.5,0.4-0.7c0.1-0.4,0.4-0.7,0.5-1c0.2-0.3,0.4-0.6,0.5-0.9 c0.2-0.2,0.2-0.5,0.3-0.6c0.2-0.2,0.2-0.4,0.3-0.6c0.2-0.2,0.2-0.4,0.3-0.6c0.1-0.1,0.2-0.2,0.3-0.4c0-0.1,0.3-0.9,0.5-0.9 c0.1-0.1-0.2,0.3-0.1,0.2c0.1-0.1,0.2-0.3,0.3-0.5c0.2-0.2,0.1-0.4,0.3-0.5c0.1-0.1,0.2-0.3,0.2-0.4c0.2-0.2,0.2-0.3,0.3-0.5 c0.1-0.2,0.3-0.5,0.5-0.8c0.2-0.3,0.3-0.7,0.6-1c0-0.2,0.2-0.3,0.3-0.5c0.1-0.2,0.3-0.5,0.5-0.8c0,0,0.2-0.1,0.2-0.1 C124.8,33,125.1,33.1,125.2,33.6z"></path> <path class="st1" d="M132.2,45.4c-0.2,0.1-0.4,0.2-0.7,0.3c-0.6,0.3-1.2,0.5-1.8,0.7c-0.4,0.1-0.8,0.2-1.1,0.3 c-0.3,0.1-0.6,0-0.8-0.3c0,0-0.1,0,0,0c-0.2-0.5-0.6-0.9-0.6-1.4c0-0.3,0.1-0.6,0.2-0.9c0.2-0.5,0.6-0.9,0.9-1.4 c0.2-0.3,0.6-0.6,0.9-0.9c0.2-0.2,0.5-0.3,0.7-0.5c0.5-0.3,1-0.6,1.5-0.8c0.5-0.3,1-0.4,1.4-0.7c0.4,0,0.8-0.2,1.3-0.2 c0.2,0,0.6,0,0.8,0.1c0.4,0,0.8,0.3,1.2,0.6c0.2,0.2,0.4,0.4,0.5,0.7c0.2,0.4,0.3,0.9,0.3,1.3c0,0.1,0,0.2-0.1,0.4 c0,0.2-0.1,0.3-0.2,0.4c0,0-0.2,0-0.2,0c-0.1-0.2-0.2-0.4-0.3-0.5c0-0.2-0.1-0.4,0-0.6c0-0.2-0.1-0.4-0.3-0.5 c-0.1-0.1-0.3-0.2-0.4-0.2c-0.2,0-0.4,0-0.7,0c-0.3,0-0.6,0.1-0.9,0.1c-0.4,0.1-0.8,0.2-1.1,0.4c-0.2,0.1-0.5,0.1-0.6,0.3 c-0.6,0.3-1.1,0.6-1.7,1c-0.3,0.2-0.6,0.5-0.9,0.8c-0.1,0.1-0.2,0.3-0.4,0.4c-0.3,0.2-0.4,0.5-0.6,0.7c0,0,0,0.1-0.1,0.2 c0.5,0,1-0.2,1.4-0.3c0.6-0.2,1.1-0.4,1.6-0.7c0.5-0.2,1-0.5,1.6-0.7c0.4-0.1,0.7-0.4,1.1-0.5c0.3-0.2,0.6-0.3,0.9-0.4 c0.3-0.1,0.5,0,0.6,0.2c0.1,0.1,0.3,0.3,0.4,0.4c0.1,0.1,0.1,0.2,0.2,0.3c0,0.1,0,0.2,0,0.3c0,0,0,0.2,0,0.2 c-0.1,0.2-0.1,0.3-0.2,0.4c-0.7,0.9-1.4,1.9-2.1,2.9c-0.4,0.3-0.6,0.7-0.9,1.1c-0.3,0.4-0.5,0.7-0.8,1.1c-0.2,0.3-0.4,0.7-0.6,1.1 c0,0,0,0.1,0,0.2c0.2,0,0.4,0,0.7,0c0.2,0,0.3,0,0.5-0.1c0.4-0.1,0.7-0.2,1.1-0.2c0.3-0.1,0.5-0.2,0.8-0.2c1.2-0.4,2.4-0.9,3.6-1.3 c0.3-0.1,0.7-0.2,1.1-0.3c0.5-0.2,1-0.3,1.5-0.5c0.2-0.1,0.3-0.1,0.5-0.2c0.2-0.1,0.3,0,0.4,0c0.1,0.2,0.4,0.3,0.4,0.6 c0,0.2,0,0.2-0.2,0.4c-0.3,0.1-0.5,0.1-0.7,0.3c-0.4,0.1-0.7,0.3-1.1,0.4c-0.2,0.1-0.4,0.1-0.6,0.2c-0.4,0.2-0.9,0.3-1.3,0.6 c-0.4,0.2-0.9,0.3-1.3,0.6c-0.6,0.2-1.3,0.5-1.9,0.7c-0.5,0.2-1.1,0.4-1.6,0.6c-0.2,0.1-0.4,0.1-0.6,0.1c-0.4,0.1-0.8,0.1-1.2,0 c-0.2,0-0.3-0.1-0.5-0.2c-0.2-0.1-0.3-0.2-0.4-0.3c0,0-0.1-0.1-0.1-0.2c-0.1-0.2-0.2-0.3-0.2-0.5c-0.2-0.3-0.4-0.7-0.4-1.1 c0-0.5,0.1-0.9,0.3-1.3c0.1-0.3,0.3-0.6,0.4-0.8c0.2-0.3,0.4-0.5,0.6-0.8c0.6-0.8,1.1-1.5,1.6-2.2c0,0,0.1-0.1,0.1-0.1 C132.9,45.1,132.5,45.3,132.2,45.4z"></path> <path class="st1" d="M156.9,45.3c0,0-0.1,0-0.2,0c-0.1,0-0.1,0,0-0.1c0,0-0.1-0.1-0.1-0.2c-0.1-0.2-0.1-0.3-0.1-0.6 c-0.1-0.1-0.3-0.2-0.4-0.4c-0.2-0.4-0.6-0.6-0.9-0.9c-0.3-0.3-0.6-0.7-1-0.9c-0.4-0.3-0.8-0.6-1.1-1c-0.4-0.3-0.7-0.7-1-1 c-0.3,0.4-0.7,0.6-1,0.8c-0.2,0.2-0.5,0.5-0.7,0.6c-0.2,0.1-0.3,0.3-0.5,0.4c-0.2,0.1-0.2,0.2-0.4,0.2c-0.1,0.1-0.2,0.3-0.3,0.4 c-0.2,0.1-0.3,0.3-0.5,0.4c-0.2,0.2-0.6,0.4-0.8,0.7c-0.3,0.1-0.4,0.3-0.6,0.5c-0.1,0.1-0.3,0.2-0.4,0.4c-0.1,0.1-0.2,0.3-0.3,0.4 c-0.3,0.1-0.4,0.3-0.6,0.5c-0.1,0.1-0.3,0.2-0.4,0.4c-0.1,0.1-0.2,0.3-0.4,0.4c-0.3,0.2-0.5,0.5-0.7,0.6c-0.3,0.2-0.6,0.5-0.8,0.7 c-0.3,0.2-0.5,0.5-0.8,0.7c-0.4,0.2-0.6,0.6-1,0.8c-0.3,0.2-0.6,0.6-0.9,0.8c-0.2,0.2-0.5,0.4-0.7,0.6c-0.2,0.2-0.4,0.5-0.6,0.6 c-0.6,0.4-1,1-1.5,1.4c-1,0.8-1.8,1.8-2.7,2.7c-0.4,0.3-0.8,0.7-1.1,1.1c-0.4,0.4-0.8,0.7-1.1,1.1c-0.3,0.3-0.6,0.7-0.9,1 c-0.3,0.3-0.6,0.6-0.9,0.9c-0.3,0.3-0.6,0.6-0.9,1c-0.3,0.3-0.7,0.6-0.9,1c-0.4,0.6-0.9,1-1.4,1.5c-0.1,0.2-0.2,0.2-0.2,0.4 c-0.1,0.1-0.2,0.2-0.2,0.3c-0.1,0.2-0.3,0.3-0.6,0.4c-0.2-0.4-0.4-0.7-0.3-1.2c0.1-0.2,0.1-0.3,0.3-0.5c0.1-0.1,0.3-0.2,0.4-0.4 c0.2-0.4,0.6-0.6,0.8-1c0.4-0.6,1-1,1.4-1.5c0.5-0.7,1.1-1.2,1.7-1.8c0.7-1,1.6-1.7,2.3-2.6c0.4-0.6,0.9-1,1.4-1.5 c0.5-0.5,0.9-1,1.4-1.5c0.5-0.5,1-1,1.4-1.5c0.5-0.5,1-1,1.4-1.5c0.1-0.1,0.1-0.1,0.2-0.2c0.1,0,0.1,0,0.2-0.1l0.9-0.9 c0.2-0.2,0.3-0.2,0.5-0.4c0.4-0.4,0.8-0.8,1.2-1.1c0.3-0.2,0.5-0.4,0.7-0.6c0.2-0.1,0.3-0.2,0.5-0.3c0.1-0.1,0.2-0.3,0.3-0.4 c0.3-0.1,0.4-0.4,0.6-0.6c0.1-0.1,0.3-0.2,0.5-0.3c0.1-0.2,0.2-0.3,0.4-0.4c0,0,0,0,0,0c0.2-0.3,0.6-0.5,0.8-0.8 c0.2-0.2,0.6-0.4,0.8-0.7c0.2-0.1,0.3-0.2,0.5-0.4c0.1-0.1,0.3-0.2,0.4-0.3c0.2-0.1,0.2-0.3,0.4-0.3c0,0,0,0,0,0 c0.2-0.3,0.5-0.4,0.7-0.7c0.1-0.1,0.3-0.2,0.4-0.3c0.1-0.1,0.2-0.3,0.4-0.3c0.3-0.4,0.7-0.5,0.9-0.8c-0.1-0.1-0.1-0.2-0.2-0.2 c-0.1,0-0.2-0.1-0.2-0.1c-0.1-0.1-0.2-0.2-0.3-0.3c-0.4-0.5-1-0.8-1.4-1.2c-0.3-0.1-0.5-0.4-0.7-0.5c-0.4-0.2-0.7-0.6-1-0.8 c-0.1-0.1-0.2-0.2-0.2-0.3c0-0.2,0-0.3-0.2-0.4c-0.1-0.2,0-0.4,0.1-0.5c0.2,0.1,0.4,0.2,0.5,0.3c0.1,0.1,0.2,0.2,0.4,0.3 c0.3,0.2,0.5,0.4,0.8,0.6c0.2,0.2,0.4,0.3,0.5,0.4c0.2,0.2,0.3,0.3,0.5,0.5c0.3,0.1,0.4,0.3,0.6,0.5c0.5,0.4,0.9,0.7,1.4,1.1 c0.3-0.2,0.5-0.5,0.9-0.7c0.2-0.2,0.5-0.4,0.7-0.6c0.1-0.1,0.2-0.2,0.4-0.2c0.1-0.1,0.1-0.3,0.3-0.3c0,0,0,0,0,0 c0.2-0.2,0.5-0.4,0.7-0.6c0.1,0,0.2-0.1,0.3-0.2c0.1-0.1,0.1-0.2,0.3-0.2c0.2-0.2,0.4-0.3,0.6-0.5c0.1-0.1,0.3-0.2,0.4-0.2 c0.1-0.1,0.2-0.3,0.3-0.3c0.1-0.2,0.3-0.3,0.5-0.4c0.2-0.2,0.5-0.4,0.9-0.5c0.2,0.2,0.4,0.3,0.4,0.5c0,0.1,0,0.3,0.1,0.4 c-0.2,0.2-0.4,0.4-0.6,0.5c-0.1,0-0.1,0-0.2,0.1c-0.2,0.2-0.3,0.4-0.7,0.6c-0.3,0.4-0.7,0.6-1,0.9c-0.2,0.2-0.3,0.3-0.5,0.4 c-0.1,0.1-0.2,0.3-0.4,0.4c0,0,0,0-0.1,0.1c-0.3,0.2-0.6,0.5-0.9,0.8c-0.1,0.1-0.3,0.2-0.4,0.3c-0.1,0.1-0.2,0.2-0.4,0.3 c-0.2,0.1-0.2,0.2-0.4,0.4c-0.1,0-0.2,0.1-0.2,0.2c0.1,0.1,0.2,0.2,0.2,0.2c1,1,2,1.9,3,2.8c0.3,0.3,0.6,0.6,0.8,0.9 c0.2,0.3,0.4,0.7,0.4,1.2C157.2,45.1,157.1,45.2,156.9,45.3z"></path> <path class="st1" d="M152.6,62.4c-1.1,0.2-2.2,0.5-3.3,0.8c-0.8,0.2-1.7,0.4-2.6,0.6c-0.5,0.1-1,0.2-1.6,0.1 c-0.2,0-0.4-0.1-0.6-0.2c-0.1,0-0.2-0.2-0.2-0.3c0-0.2-0.1-0.4-0.1-0.6c-0.1-0.7-0.1-0.8,0.2-1.4c0.2-0.2,0.3-0.5,0.5-0.7 c0.1-0.1,0.2-0.2,0.3-0.3c0.1-0.1,0.2-0.1,0.3-0.3c0,0,0,0,0,0c0.2-0.3,0.5-0.5,0.7-0.8c0.4-0.4,0.8-0.8,1.3-1.2 c0.5-0.4,0.9-0.7,1.4-1.1c0.2-0.1,0.3-0.2,0.5-0.4c0.2-0.1,0.3-0.3,0.5-0.4l0.2-0.1c-0.7,0.2-1.4,0.3-2.1,0.5 c-0.5,0.1-1,0.3-1.5,0.3c-0.2,0-0.3,0.1-0.4,0.1c-0.7,0.2-1.4,0.4-2.2,0.4c-0.4,0.1-0.8,0.2-1.3,0.2c-0.4,0-0.8,0.1-1.2,0.2 c-0.4,0-0.8,0-1.1-0.1c-0.3-0.1-0.5-0.2-0.5-0.6c-0.1-0.4-0.2-0.8-0.2-1.1c-0.1-0.2,0-0.4,0.1-0.5c0.1-0.3,0.2-0.5,0.4-0.8 c0.2-0.3,0.4-0.5,0.7-0.8c0.3-0.3,0.6-0.6,0.9-0.8c0.3-0.3,0.7-0.6,1-0.9c0.1-0.1,0.3-0.1,0.4-0.3c0.1-0.1,0.3-0.2,0.4-0.3 c0.3-0.1,0.5-0.3,0.7-0.4c0.1-0.1,0.2-0.1,0.2-0.1c0.1-0.1,0.3-0.1,0.5-0.2c0.1-0.1,0.3-0.2,0.4-0.3c0.4-0.2,0.7-0.3,1-0.5 c0.3-0.2,0.6-0.3,1-0.5c0.2-0.1,0.5-0.2,0.8-0.4c0.5-0.2,0.9-0.4,1.3-0.6c0.2-0.1,0.4-0.1,0.6-0.1c0.1,0.2,0.3,0.4,0.4,0.6 c0,0.1,0,0.2,0,0.3c0,0.1,0,0.1,0,0.1c0.2,0.3-0.1,0.4-0.3,0.4c-0.3,0.2-0.6,0.3-0.9,0.4c-0.4,0.2-0.8,0.4-1.1,0.6 c-0.2,0.1-0.4,0.3-0.7,0.3c-0.2,0-0.3,0.2-0.4,0.2c-0.2,0.2-0.4,0.2-0.6,0.4c-0.2,0.1-0.4,0.2-0.6,0.3c-0.2,0.1-0.5,0.3-0.8,0.4 c-0.2,0.1-0.3,0.2-0.5,0.3c-0.2,0.1-0.3,0.3-0.5,0.3c-0.3,0.1-0.4,0.3-0.7,0.4c-0.5,0.2-0.8,0.6-1.2,0.9c-0.2,0.1-0.3,0.3-0.5,0.4 c-0.3,0.3-0.5,0.5-0.7,0.8c-0.1,0.1-0.1,0.1-0.2,0.2c0.5,0.1,0.9,0,1.4,0c0.6-0.1,1.2-0.2,1.7-0.2c0.2,0,0.4-0.1,0.6-0.1 c0.4-0.1,0.8-0.2,1.2-0.3c0.5,0,1-0.2,1.4-0.3c0.5-0.1,1-0.2,1.4-0.4c0.3-0.1,0.5-0.1,0.8-0.2c0.2-0.1,0.5-0.1,0.8-0.1 c0.3-0.1,0.5-0.2,0.8-0.2c0.1,0,0.3-0.1,0.4-0.1c0.3-0.1,0.7-0.1,1-0.1c0.2,0.2,0.4,0.4,0.5,0.7c0,0.1,0.1,0.2,0.1,0.3 c0,0.3,0,0.7-0.2,1c0,0,0,0,0,0c-0.1,0.2-0.3,0.4-0.5,0.5c-0.7,0.6-1.4,1.3-2.2,1.8c-0.5,0.3-0.9,0.7-1.3,1 c-0.5,0.3-0.9,0.7-1.3,1.1c-0.3,0.3-0.6,0.7-1,0.9c-0.1,0.2-0.3,0.4-0.6,0.5c0,0,0,0.1-0.1,0.2c0.3,0,0.4,0,0.6-0.1 c0.6-0.1,1.2-0.2,1.8-0.3c0.3-0.1,0.6-0.2,1-0.2c0.6-0.1,1.1-0.2,1.7-0.3c0.3-0.1,0.8-0.1,1.1-0.2c0.4,0,0.8-0.2,1.2-0.3 c0.1,0,0.3,0,0.4,0c0.1,0.1,0.2,0.1,0.1,0.2c0.2,0,0.1,0.2,0.2,0.2c-0.1,0.3-0.3,0.5-0.6,0.7C153,62.2,152.8,62.3,152.6,62.4z"></path> <path class="st1" d="M158,73.3c-0.5,0.1-1,0-1.5,0.1c-0.1,0-0.3,0-0.4,0c-0.5,0.1-0.9,0.1-1.4,0.1c-0.6,0-1.1,0-1.7,0.1 c-1.1,0.1-2.1,0.1-3.2,0.2c-0.8,0.1-1.6,0.1-2.4,0.1c-0.8,0.1-1.6,0.1-2.4,0.1c-0.7,0-1.3,0-2-0.1c-0.4-0.1-0.8-0.2-1.1-0.4 c-0.3-0.2-0.4-0.4-0.4-0.7c0-0.3,0-0.6,0-0.9c0-0.5,0.2-1,0.5-1.4c0.1-0.1,0.3-0.3,0.5-0.4c0.1-0.1,0.3-0.3,0.4-0.4 c0.1-0.1,0.3-0.2,0.4-0.3c0.2-0.2,0.5-0.4,0.7-0.5c0.2-0.1,0.4-0.4,0.7-0.4c0.2-0.1,0.5-0.2,0.7-0.4c0.3-0.3,0.7-0.5,1.1-0.7 c0.4-0.3,0.8-0.5,1.2-0.7c0.6-0.2,1.2-0.7,1.8-0.9c0.2-0.1,0.5-0.2,0.8-0.4c0.2-0.1,0.5-0.3,0.7-0.4c0.4-0.1,0.7-0.4,1.1-0.5 c0.3-0.1,0.6-0.3,1-0.5c0.3-0.1,0.6-0.3,0.9-0.5c0.3-0.1,0.6-0.3,0.9-0.4c0.3-0.1,0.5-0.3,0.8-0.4c0.3-0.1,0.5-0.3,0.8-0.4 c0.2-0.1,0.4-0.2,0.7-0.3c0.1,0,0.3-0.1,0.4-0.1c0.1-0.1,0.2-0.2,0.3-0.2c0.2-0.1,0.4-0.2,0.6-0.3c0.1-0.1,0.3-0.1,0.4-0.2 c0.2,0,0.3-0.2,0.4-0.1c0,0,0,0,0.1-0.1c0.2-0.1,0.5-0.3,0.8-0.4c0.1-0.1,0.2-0.1,0.4-0.1c0.1-0.1,0.2-0.1,0.3-0.1 c0.1,0,0.2-0.1,0.4-0.1c0.3-0.1,0.6-0.3,0.9-0.4c0.2,0,0.3-0.2,0.5-0.1c0.2,0,0.2-0.1,0.4-0.2c0.3-0.1,0.6-0.3,0.9-0.3 c0.2,0,0.3-0.2,0.5-0.2c0.1,0,0.3-0.1,0.4-0.2c0.1-0.1,0.4,0,0.5-0.1c0.3-0.1,0.7-0.3,1.2-0.3c0.1-0.1,0.4-0.1,0.5-0.2 c0.2,0,0.3-0.1,0.5-0.2c0.5-0.1,1-0.3,1.6-0.4c0.3-0.1,0.5-0.2,0.8-0.2c0.2,0,0.5-0.2,0.8-0.1c0.3-0.2,0.7-0.2,1.1-0.3 c0.5-0.1,1-0.2,1.5-0.2l0,0c0.5,0,1-0.1,1.6,0c0.5-0.1,1,0.1,1.5,0.2c0.3,0,0.6,0.2,0.8,0.4c0.1,0.1,0.2,0.2,0.2,0.4 c0,0.2,0.2,0.3,0.2,0.5c0,0.4-0.1,0.8-0.4,1.1c-0.2,0.3-0.5,0.5-0.8,0.7c-0.2,0.2-0.5,0.3-0.7,0.5c-0.3,0.2-0.6,0.3-0.8,0.5 c-0.3,0.2-0.6,0.3-0.8,0.5c-0.1,0.1-0.3,0.1-0.5,0.2c-0.1,0.1-0.3,0.2-0.4,0.2c-0.3,0.1-0.7,0.3-1,0.4c-0.1,0.1-0.3,0.1-0.4,0.2 c-0.1,0.1-0.3,0-0.5,0.2c-0.1,0.1-0.3,0-0.4,0.1c-0.2,0-0.3,0.2-0.5,0.1c-0.2,0-0.4,0.1-0.5,0.2c-0.4,0.1-0.9,0.3-1.4,0.4 c-0.2,0.1-0.5,0.1-0.7,0.2c-0.3,0.1-0.6,0.2-0.9,0.3c-0.3,0.1-0.7,0.2-1,0.2c-0.3,0.1-0.7,0.2-1,0.2c-0.5,0.1-0.9,0.2-1.4,0.3 c-0.5,0.1-1.1,0.1-1.6,0.2c-0.4,0.1-0.9,0.1-1.3,0.2c-0.1,0-0.1,0-0.2,0c-0.3,0-0.6,0.1-1,0.1c-0.4,0-0.9,0-1.3,0 c-0.4,0-0.9,0-1.4,0c-0.2,0-0.3-0.1-0.5-0.1c-0.3-0.1-0.6-0.1-0.9-0.3c-0.2-0.1-0.4,0-0.6,0.1c-0.5,0.2-1,0.5-1.5,0.7 c-0.5,0.2-0.9,0.4-1.3,0.7c-0.4,0-0.8,0.4-1.1,0.5c-0.3,0.2-0.7,0.3-1.1,0.5c-0.3,0.2-0.6,0.4-1,0.6c-0.6,0.2-1.1,0.6-1.7,0.9 c-0.6,0.3-1.1,0.6-1.7,0.9c-0.3,0.2-0.7,0.5-1,0.6c-0.1,0.1-0.3,0.2-0.3,0.3c-0.1,0.1-0.3,0.1-0.4,0.3c-0.1,0.1-0.2,0.1-0.2,0.1 c-0.1,0.1-0.1,0.1-0.2,0.2c-0.3,0.2-0.5,0.4-0.6,0.7c0.1,0,0.3,0.2,0.5,0.2c0.6,0.1,1.1,0.2,1.7,0.2c0.4,0,0.7,0,1,0.1 c0.4,0,0.7,0,1.1,0c0.7,0,1.4,0,2.1,0c0.5,0.1,0.9,0,1.4,0c1.4-0.1,2.6-0.1,4-0.2c0.7,0,1.5-0.1,2.3-0.1c1-0.1,1.9-0.1,2.8-0.2 c0.1,0,0.3,0,0.4,0.1c0.1,0.1,0.1,0.2,0.1,0.4c0.1,0.1,0.2,0.3-0.1,0.4c0,0,0,0,0,0c-0.1,0-0.1,0-0.2,0c0,0,0,0,0,0.1c0,0,0,0,0,0 s0,0,0,0l0,0c-0.1,0-0.1,0-0.1,0c0,0,0,0,0,0l0,0c0,0-0.1,0.1-0.1,0.1C158.9,73.3,158.4,73.3,158,73.3z M157.4,64.2 c-0.2-0.1-0.4,0.1-0.6,0.2c0.2,0,0.3,0.1,0.4,0.1c0.7,0.1,1.3,0,1.9,0.1c0.7-0.1,1.3-0.1,2-0.2c0.4,0,0.8-0.1,1.2-0.1 c0.9-0.2,1.7-0.3,2.5-0.5c0.4-0.1,0.7-0.2,1.1-0.3c0.3-0.1,0.7-0.2,1.1-0.3c0.3-0.1,0.7-0.2,0.9-0.3c0.4-0.1,0.7-0.2,1.1-0.3 c0.3-0.1,0.6-0.2,0.9-0.3c0.1,0.1,0.2-0.1,0.4-0.1c0.2,0,0.2-0.1,0.4-0.1c0.1,0,0.2-0.1,0.4-0.1c0.3-0.1,0.6-0.2,0.9-0.3 c0.2-0.1,0.4-0.1,0.6-0.2c0.1-0.1,0.3-0.2,0.5-0.2c0.4-0.2,0.8-0.3,1.3-0.6c0.3-0.2,0.7-0.3,0.9-0.6c0.5-0.2,0.8-0.5,1.2-0.8 c0.1-0.1,0.3-0.2,0.2-0.4c-0.1,0-0.2,0-0.3,0c-0.4-0.1-0.8-0.1-1.2-0.1c-0.3,0-0.7,0-1,0.1c-0.3,0-0.6,0.1-0.9,0.1 c-0.2,0-0.4,0-0.6,0.1c-0.2,0-0.5,0.1-0.7,0.1c-0.4,0.1-0.8,0.2-1.2,0.3c-0.3,0.1-0.7,0.2-1,0.3c-0.2,0.1-0.5,0.1-0.7,0.2 c-0.3,0.1-0.6,0.1-0.9,0.3c-0.3,0-0.6,0.1-0.8,0.2c-0.3,0.1-0.6,0.1-0.9,0.3c-0.2,0-0.3,0.2-0.5,0.2c-0.3,0-0.6,0.2-0.9,0.3 c-0.2,0.1-0.4,0.2-0.6,0.3c-0.2,0-0.3,0.2-0.4,0.1c-0.2,0-0.2,0.1-0.4,0.1c-0.1,0.1-0.3,0.1-0.4,0.1c-0.2,0.1-0.4,0.2-0.6,0.2 c-0.1,0.1-0.2,0.1-0.4,0.1c-0.1,0.1-0.3,0.1-0.4,0.1c-0.2,0.1-0.5,0.3-0.8,0.3c-0.1,0.1-0.2,0.1-0.4,0.2c-0.1,0.1-0.3,0.1-0.4,0.2 c-0.3,0.2-0.6,0.2-0.8,0.4c0,0,0,0,0,0c-0.2-0.1-0.4,0.1-0.5,0.2c-0.1,0.1-0.3,0.1-0.5,0.2C158.1,63.8,157.7,63.9,157.4,64.2 L157.4,64.2z"></path> <path class="st1" d="M157.8,76.9c-0.2,0-0.5-0.1-0.8-0.1c-0.6-0.1-1.3-0.2-1.9-0.4c-0.4-0.1-0.7-0.3-1.1-0.4 c-0.3-0.1-0.5-0.4-0.5-0.7c0,0-0.1,0,0-0.1c0.1-0.5,0-1,0.3-1.5c0.2-0.3,0.4-0.4,0.7-0.6c0.5-0.3,1-0.4,1.5-0.6 c0.4-0.1,0.8-0.2,1.3-0.2c0.3,0,0.6,0,0.9-0.1c0.5,0,1.1,0.1,1.7,0.1c0.5,0,1.1,0.2,1.6,0.3c0.4,0.2,0.8,0.3,1.2,0.6 c0.2,0.2,0.5,0.3,0.7,0.5c0.3,0.3,0.5,0.7,0.6,1.1c0,0.3,0.1,0.6,0.1,0.9c-0.1,0.4-0.2,0.9-0.5,1.2c-0.1,0.1-0.2,0.2-0.3,0.3 c-0.1,0.1-0.2,0.2-0.4,0.3c-0.1,0-0.2-0.1-0.2-0.2c0-0.2,0-0.4,0.1-0.6c0.1-0.2,0.2-0.4,0.3-0.5c0.1-0.1,0.2-0.4,0-0.5 c-0.1-0.2-0.1-0.3-0.2-0.4c-0.2-0.2-0.3-0.3-0.6-0.4c-0.2-0.2-0.5-0.3-0.8-0.4c-0.4-0.1-0.8-0.2-1.2-0.3c-0.2,0-0.5-0.1-0.7-0.1 c-0.7-0.1-1.3-0.1-2-0.1c-0.4,0-0.8,0.1-1.2,0.1c-0.2,0-0.4,0.1-0.5,0.1c-0.4,0-0.6,0.2-0.9,0.3c-0.1,0-0.1,0.1-0.2,0.1 c0.4,0.3,0.9,0.4,1.4,0.5c0.6,0.1,1.1,0.2,1.7,0.4c0.6,0.1,1.1,0.2,1.7,0.3c0.4,0.1,0.8,0.1,1.2,0.2c0.4,0,0.7,0.1,1,0.2 c0.3,0.1,0.4,0.3,0.4,0.5c0.1,0.2,0.1,0.4,0.1,0.6c0,0.1,0,0.2,0,0.4c0,0.1-0.1,0.2-0.1,0.3c0,0.1-0.1,0.1-0.1,0.2 c-0.1,0.1-0.2,0.2-0.4,0.3c-1.1,0.4-2.2,0.8-3.3,1.2c-0.5,0.1-0.9,0.3-1.3,0.4c-0.4,0.2-0.8,0.3-1.3,0.5c-0.4,0.1-0.7,0.4-1.1,0.6 c-0.1,0-0.1,0.1-0.1,0.2c0.2,0.1,0.4,0.2,0.6,0.4c0.1,0.1,0.3,0.1,0.4,0.2c0.4,0.2,0.7,0.3,1,0.4c0.3,0.1,0.5,0.2,0.8,0.2 c1.2,0.3,2.4,0.6,3.7,0.9c0.3,0.1,0.7,0.2,1.1,0.3c0.5,0.1,1,0.3,1.5,0.5c0.2,0,0.3,0.1,0.5,0.2c0.2,0,0.3,0.2,0.3,0.3 c0,0.2,0.2,0.5,0,0.7c-0.1,0.2-0.1,0.2-0.4,0.3c-0.3-0.1-0.5-0.1-0.7-0.2c-0.4-0.1-0.8-0.2-1.1-0.2c-0.2,0-0.4-0.1-0.6-0.1 c-0.4-0.1-0.9-0.2-1.4-0.3c-0.4-0.1-0.9-0.2-1.4-0.3c-0.7-0.2-1.3-0.3-2-0.5c-0.6-0.1-1.2-0.3-1.7-0.4c-0.2,0-0.4-0.2-0.5-0.2 c-0.4-0.2-0.7-0.4-1-0.7c-0.2-0.1-0.2-0.3-0.3-0.4c-0.1-0.1-0.1-0.3-0.2-0.5c0-0.1,0-0.2,0-0.2c0-0.2,0-0.4,0.1-0.6 c0-0.4,0.1-0.8,0.3-1.1c0.3-0.4,0.6-0.7,1-0.9c0.2-0.1,0.5-0.3,0.8-0.4c0.3-0.1,0.6-0.2,0.9-0.3c0.9-0.3,1.7-0.6,2.6-0.9 c0.1,0,0.1,0,0.2-0.1C158.5,77,158.2,77,157.8,76.9z"></path> <path class="st1" d="M178.7,93.7c-0.1,0-0.1,0-0.1-0.1c-0.1,0,0-0.2,0.1-0.3c0-0.2,0.2-0.5,0.1-1.1c0-0.5-0.1-0.8-0.2-1.3 c-0.1-0.4-0.1-0.9-0.2-1.3c-0.1-0.5-0.3-0.9-0.3-1.4c-0.1-0.5-0.2-0.9-0.3-1.4c-0.4,0.1-0.9,0-1.3,0.1c-0.3,0.1-0.7,0.1-0.9,0.1 c-0.2,0-0.4,0-0.7,0.1c-0.2,0-0.3,0-0.5,0c-0.2,0-0.3,0.1-0.5,0.1c-0.2,0-0.4,0-0.7,0.1c-0.3,0.1-0.7,0-1,0.1c-0.3-0.1-0.5,0-0.8,0 c-0.2,0-0.4,0-0.6,0c-0.2,0-0.4,0.1-0.5,0.1c-0.3-0.1-0.5,0-0.8,0c-0.2,0-0.4,0-0.6,0c-0.2,0-0.4,0.1-0.5,0.1 c-0.3,0-0.7,0.1-0.9,0.1c-0.4,0-0.8,0.1-1.1,0.1c-0.4,0-0.7,0.1-1,0.1c-0.5,0-0.8,0.1-1.3,0.1c-0.4,0-0.8,0.1-1.2,0.2 c-0.3,0.1-0.6,0-0.9,0.1c-0.3,0-0.6,0.2-0.9,0.2c-0.7,0-1.4,0.2-2,0.3c-1.3,0.1-2.5,0.5-3.8,0.6c-0.5,0-1,0.1-1.5,0.2 c-0.5,0.1-1,0.1-1.5,0.3c-0.4,0.1-0.9,0.2-1.3,0.3c-0.4,0.1-0.9,0.2-1.3,0.2c-0.4,0.1-0.9,0.2-1.3,0.2c-0.4,0.1-0.9,0.1-1.3,0.2 c-0.6,0.2-1.4,0.3-2,0.4c-0.2,0.1-0.3,0.1-0.4,0.2c-0.1,0-0.3,0-0.4,0.1c-0.2,0.1-0.4,0.1-0.7,0c0.1-0.4,0.1-0.8,0.5-1.1 c0.2-0.1,0.3-0.2,0.5-0.2c0.2,0,0.4,0,0.5-0.1c0.4-0.2,0.9-0.2,1.2-0.3c0.6-0.2,1.4-0.2,2-0.4c0.8-0.3,1.6-0.3,2.4-0.5 c1.1-0.4,2.3-0.5,3.4-0.7c0.6-0.2,1.3-0.3,2-0.4c0.7-0.1,1.3-0.2,2-0.4c0.7-0.1,1.4-0.2,2-0.4c0.7-0.1,1.4-0.2,2-0.4 c0.1,0,0.2,0,0.3,0c0.1,0,0.1,0,0.2,0l1.3-0.2c0.2,0,0.4,0,0.6-0.1c0.5-0.1,1.1-0.2,1.6-0.2c0.3,0,0.7-0.1,0.9-0.1 c0.2,0,0.3,0.1,0.6,0c0.2,0,0.3-0.1,0.5-0.1c0.3,0.1,0.6,0,0.8-0.1c0.2,0,0.3,0,0.6,0c0.2-0.1,0.4-0.1,0.6,0c0,0,0,0,0.1,0 c0.4-0.1,0.8,0,1.2-0.2c0.3-0.1,0.7,0,1.1-0.1c0.2,0.1,0.4,0,0.6-0.1c0.2,0,0.3,0,0.5,0c0.2,0,0.3-0.1,0.5,0c0,0,0,0,0.1,0 c0.3-0.1,0.7,0,1-0.1c0.2,0,0.3,0,0.5,0c0.2,0,0.3-0.2,0.5,0c0.4-0.1,0.8,0,1.2-0.2c0-0.1,0-0.2,0-0.3c-0.1,0-0.1-0.2-0.1-0.2 c0-0.1,0-0.3-0.1-0.4c-0.1-0.6-0.3-1.2-0.4-1.8c-0.2-0.3-0.2-0.6-0.3-0.8c-0.2-0.4-0.2-0.9-0.3-1.2c0-0.2-0.1-0.5-0.1-0.6 c0.1-0.2,0.2-0.5,0.6-0.5c0.1,0.2,0.2,0.4,0.2,0.5c0,0.2,0.1,0.3,0.1,0.5c0.1,0.3,0.2,0.6,0.3,0.9c0,0.2,0.1,0.4,0.2,0.6 c0,0.2,0,0.4,0.1,0.7c0.2,0.3,0.2,0.5,0.2,0.8c0.2,0.6,0.3,1.1,0.4,1.7c0.4,0,0.7-0.1,1.1,0c0.3,0,0.6-0.1,0.9-0.1 c0.2,0,0.3,0,0.5,0c0.1,0,0.3-0.2,0.4,0c0,0,0,0,0.1,0c0.3,0,0.6-0.1,0.9-0.1c0.1,0,0.2,0,0.4,0c0.1,0,0.2-0.1,0.3,0 c0.3-0.1,0.5,0,0.8-0.1c0.2,0,0.3,0.1,0.5,0c0.2,0,0.3-0.1,0.4,0c0.2-0.1,0.4,0,0.7,0c0.3-0.1,0.7,0,1,0.1c0.1,0.3,0.1,0.5,0.1,0.7 c0,0.1-0.1,0.2-0.2,0.4c-0.3,0-0.5,0.1-0.8,0c-0.1,0-0.1,0-0.2,0c-0.3,0-0.5,0.2-0.9,0.1c-0.4,0.1-0.9,0-1.3,0.1 c-0.2,0-0.4,0.1-0.6,0.1c-0.2,0-0.4,0.1-0.6,0c-0.1,0-0.1,0-0.1,0c-0.4,0-0.8,0.1-1.2,0.1c-0.2,0-0.3,0-0.5,0c-0.2,0-0.3,0.1-0.5,0 c-0.2,0-0.3,0.1-0.5,0.1c-0.1,0-0.2,0-0.3,0c0,0.1,0,0.2,0.1,0.3c0.2,1.4,0.5,2.7,0.7,4c0.1,0.4,0.1,0.8,0.2,1.2 c0,0.4-0.1,0.9-0.3,1.2C179.1,93.6,179,93.7,178.7,93.7z"></path> <path class="st1" d="M170.8,92.8c0.1,0,0.3,0,0.5,0c0.1,0,0.2,0.1,0.2,0.2c0.1,0.4,0.2,0.9-0.1,1.2c-0.2,0.3-0.3,0.5-0.5,0.5 C169.5,94.8,169.2,93.3,170.8,92.8z M166.3,93.7c0,0.2-0.2,0.3-0.2,0.4c-0.1,0.1-0.3,0-0.4,0c-0.1,0-0.1-0.1-0.1,0 c-0.3,0.1-0.6,0-0.9,0c-0.2,0-0.3,0-0.4,0c-0.2,0-0.3,0.1-0.4,0c-0.1-0.1-0.1,0-0.1,0c-0.3,0-0.7,0.1-0.9,0c-0.2,0-0.5,0.1-0.7,0 l-0.1,0c-0.3,0-0.6,0-0.9,0c-0.2,0-0.3,0-0.4,0c-0.2,0-0.3,0.1-0.4,0c0,0-0.1,0-0.1,0c-0.3,0-0.6,0-0.9,0c-0.2,0-0.3-0.1-0.4-0.1 c-0.2,0.1-0.3,0.1-0.5,0c-0.4,0-0.8,0-1.2,0c-0.3,0-0.6,0-0.9,0c-0.3,0-0.7,0-1,0.1c-0.3,0-0.6,0.1-0.9,0.2c0.1,0,0.2,0.1,0.3,0.3 c0.4,0.3,0.8,0.5,1.2,0.7c0.6,0.3,1.3,0.7,1.9,0.9c0.8,0.4,1.6,0.6,2.4,1c0.5,0.2,0.9,0.4,1.4,0.6c0.4,0.2,0.9,0.4,1.3,0.6 c0.5,0.2,1,0.4,1.5,0.7c0.5,0.2,0.9,0.4,1.3,0.7c0.1,0,0.2,0.1,0.3,0.2c0,0.2,0,0.3,0,0.4c0,0.2-0.2,0.1-0.3,0.2 c0.1,0.1,0.1,0.1,0.1,0.2c-0.2,0.1-0.3,0-0.5,0c-0.4-0.2-0.7-0.3-1.1-0.5c-1.2-0.6-2.4-1-3.6-1.5c-0.5-0.2-1.1-0.4-1.7-0.6 c-1.3-0.4-2.5-0.9-3.7-1.4c-0.5-0.2-1-0.5-1.4-0.8c-0.2-0.1-0.4-0.4-0.6-0.6c-0.2-0.3-0.3-0.6-0.2-0.9c0.1-0.3,0.2-0.7,0.4-1 c0.1-0.3,0.3-0.4,0.6-0.6c0.3-0.2,0.6-0.3,1-0.4c0.3-0.1,0.5-0.1,0.8-0.2c0.2,0,0.3-0.1,0.5-0.1c0.3,0,0.5,0.1,0.7,0 c0.3-0.1,0.5-0.1,0.8-0.1c0.2,0,0.5,0,0.7,0c0.2,0,0.4,0,0.6,0c0.2,0,0.4,0,0.6,0c0.2,0,0.3,0,0.5,0.1c0.2,0,0.3,0,0.5,0 c0.3,0,0.6,0,1,0.1c0.3,0,0.6,0.1,0.9,0.1c0.3,0,0.7,0.1,1,0.1c0.4,0,0.9,0.1,1.3,0.2c0.2,0.1,0.5,0.1,0.7,0.2 c0.3,0,0.5,0.1,0.7,0.3C166.3,93.3,166.4,93.5,166.3,93.7z"></path> <path class="st1" d="M164.2,111.5c-0.1-0.5-0.3-1-0.5-1.6c-0.1-0.3-0.2-0.7-0.3-1.1c-0.1-0.4-0.3-0.8-0.4-1.2 c0-0.2-0.1-0.3-0.1-0.6c0-0.1-0.1-0.2-0.2-0.2c-0.3,0-0.6-0.2-0.9-0.3c-0.2,0-0.4-0.1-0.7-0.2c-0.2-0.1-0.4-0.2-0.6-0.3 c-0.3-0.1-0.5-0.4-0.8-0.5c-0.3-0.2-0.5-0.4-0.7-0.5c-0.2-0.2-0.5-0.4-0.6-0.6c-0.1-0.2-0.1-0.3-0.3-0.5c-0.2-0.3-0.2-0.7-0.3-1 c0.1-0.3-0.2-0.7,0-0.9c0-0.6,0.4-1,0.6-1.5c0.2-0.5,0.7-0.9,1.2-1.2c0.2-0.1,0.5-0.2,0.6-0.3c0.2,0,0.5-0.1,0.7-0.2 c0.2,0,0.4,0,0.7-0.1c0.4-0.1,0.9,0,1.4,0c0.1,0,0.3,0.1,0.4,0.1c0.1,0,0.3-0.1,0.4,0.1c0.3,0,0.5,0.1,0.8,0.2 c0.4,0.1,0.8,0.3,1.2,0.5c0.5,0.2,1,0.4,1.6,0.7c0.3,0.2,0.7,0.5,1.1,0.7c0.4,0.4,0.8,0.8,1.2,1.2c0.2,0.3,0.9,0.8,0.8,2 c0,0.5-0.3,0.9-0.7,1.2c-0.3,0.2-0.6,0.4-1,0.6c-0.3,0.1-0.7,0.2-1,0.3c-0.3,0.1-0.6,0.2-0.9,0.2c-0.3,0.1-0.7,0.2-1,0.2 c-0.3,0-0.6,0.1-0.8,0.1c-0.3,0-0.7,0-1,0c0.1,0.4,0.1,0.7,0.2,1.1c0.2,0.5,0.3,1.1,0.4,1.6c0.2,0.6,0.4,1.3,0.6,2 c0.1,0.1,0,0.1,0.1,0.1c0,0.1,0,0.1,0,0.1c0.1,0.1,0,0.1,0,0.1c0,0.1,0,0.1,0.1,0.1c0,0.1,0,0.1,0,0.1l0,0.1l0,0.1 c0,0.1,0,0.1,0,0.1c0,0.1,0,0.1,0,0.1c0,0,0,0,0,0.1c0,0,0,0,0,0.1c-0.1,0.1-0.1,0.1-0.1,0.1c0,0.1,0,0.1-0.1,0.1l0,0.1l-0.1,0 c0,0-0.1,0-0.1,0.1l-0.1,0c0,0,0,0-0.1,0l-0.1,0c-0.1,0-0.1,0-0.1,0c-0.1,0-0.1,0-0.1,0l0-0.1c-0.1,0-0.1,0-0.1,0 c0-0.1-0.1-0.1-0.1-0.1c-0.1,0-0.1,0-0.1,0c-0.1-0.1,0-0.1-0.1-0.1C164.5,112.2,164.4,111.8,164.2,111.5z M162.9,105 c0.1-0.7,0.5-1.3,0.9-2c0.5-0.6,1-1.1,1.7-1.5c-0.5-0.2-1-0.4-1.5-0.6c-0.3-0.1-0.5-0.2-0.8-0.2c-0.3-0.1-0.6-0.2-0.9-0.2 c-0.2,0-0.4,0-0.7,0c-0.3,0-0.6,0-0.9,0c-0.1,0-0.3,0.1-0.4,0.1c-0.3,0-0.6,0.2-0.9,0.4c-0.2,0.1-0.3,0.2-0.3,0.4 c0,0.4,0.1,0.7,0.3,1.1c0.2,0.3,0.5,0.7,0.8,1c0.4,0.4,0.8,0.6,1.2,0.8c0.2,0.1,0.5,0.2,0.7,0.4C162.3,104.9,162.6,105.1,162.9,105 z M166.3,105.4c0.2,0,0.4,0,0.6-0.1c0.2-0.1,0.4-0.1,0.7-0.1c0.5-0.1,1-0.3,1.4-0.4c0.5-0.3,0.2-0.8,0-1c-0.2-0.1-0.3-0.2-0.4-0.4 c-0.2-0.2-0.4-0.4-0.7-0.5c-0.2,0-0.4-0.1-0.6-0.2c-0.2-0.1-0.4-0.1-0.7-0.1c-0.1-0.1-0.3-0.1-0.4,0c-0.2,0-0.3,0-0.4,0 c-0.2,0.1-0.5,0.1-0.7,0.3c-0.3,0.2-0.5,0.4-0.8,0.7c-0.2,0.3-0.4,0.6-0.4,1c0,0.1,0,0.1,0,0.2c-0.1,0.3,0,0.5,0.4,0.5 C164.9,105.4,165.6,105.5,166.3,105.4z"></path> <path class="st1" d="M160.6,129.1c-0.2-0.3-0.4-0.6-0.6-0.8c-0.3-0.2-0.5-0.5-0.8-0.8c-0.2-0.3-0.3-0.5-0.6-0.7 c-0.3-0.4-0.7-0.9-1.1-1.3c-0.2-0.2-0.4-0.4-0.6-0.7c-0.3-0.3-0.6-0.5-0.8-0.8c-0.3-0.3-0.5-0.6-0.8-0.9c-0.3-0.3-0.5-0.6-0.8-1 c-0.3-0.3-0.6-0.7-0.9-1c-0.1-0.2-0.2-0.4-0.4-0.6c0-0.1-0.1-0.1-0.1-0.2c-0.1-0.3-0.1-0.4,0.2-0.6c0.2-0.2,0.4-0.5,0.6-0.7 c0.2-0.2,0.4-0.3,0.6-0.4c0.4-0.1,0.8-0.1,1.2-0.1c0.5,0,0.9-0.1,1.4,0.1c0.2-0.1,0.3,0,0.5,0c0.2,0,0.4,0.1,0.5,0.1s0.3,0,0.4,0 c0.2,0,0.3,0.1,0.4,0.1c0.1,0,0.3,0,0.4,0c0.3,0,0.7,0.1,1.1,0c0.2,0,0.3,0.1,0.5,0.1c0.2-0.1,0.5,0.1,0.7,0.1c0.1,0,0.2,0,0.3,0 c0.1,0,0.2,0.1,0.3,0c0.1,0,0.1,0,0.2,0c0.2,0.1,0.5,0.1,0.7,0c0.2,0,0.3,0.1,0.5,0.1c0.3,0.1,0.6,0,0.9,0.1c0.5,0,1.1,0,1.7-0.1 c-0.3-0.3-0.5-0.7-0.7-1c-0.4-0.6-1-1.2-1.5-1.7c-0.3-0.4-0.7-0.7-1-1c-0.5-0.5-0.9-0.8-1.3-1.2c-0.3-0.3-0.6-0.6-1.1-0.9 c-0.1,0-0.1-0.1-0.2-0.2c-0.4-0.4-0.9-0.7-1.4-1c-0.1-0.1-0.3-0.2-0.4-0.3c-0.1-0.1-0.1-0.3,0-0.3c0.3-0.2,0.4-0.4,0.6-0.6 c0.1-0.1,0.3-0.2,0.4-0.2c0.3,0,0.5,0.1,0.8,0.1c0.4,0.1,0.8,0.1,1.2,0.2c0.4,0,0.8,0.3,1.2,0.2c0.4,0.1,0.8,0.2,1.2,0.3 c0.4,0.1,0.8,0.1,1.2,0.3c0.6,0.3,1.3,0.4,2,0.6c0.3,0.1,0.5,0.2,0.8,0.3c0.1,0,0.2,0.1,0.3,0.2c0.2,0.2,0.2,0.2,0.2,0.5 c-0.1,0.2-0.1,0.4-0.3,0.4c-0.1,0-0.2,0.2-0.2,0.2c-0.2,0-0.3,0-0.4-0.1c-0.1-0.1-0.2-0.1-0.3-0.1c-0.2-0.1-0.4-0.1-0.6-0.2 l-2.4-0.6c-0.3,0-0.5-0.1-0.8-0.1c-0.6-0.1-1.1-0.3-1.8-0.4c0.1,0.2,0.3,0.3,0.4,0.4c0.2,0.2,0.5,0.5,0.7,0.7 c0.2,0.2,0.4,0.3,0.6,0.5c0.4,0.4,0.8,0.8,1.2,1.2c0.5,0.5,0.9,0.9,1.3,1.4c0.3,0.3,0.6,0.6,0.8,1c0.2,0.3,0.4,0.4,0.6,0.7 c0.1,0.2,0.1,0.3,0.2,0.5c0.1,0.2,0,0.3,0,0.6c-0.1,0.2-0.2,0.5-0.3,0.7c-0.1,0.1-0.2,0.2-0.2,0.2c-0.6,0.4-1.1,0.6-1.8,0.7 c-0.3,0-0.6,0-0.9,0.1c-0.2,0.1-0.5,0-0.8,0c-0.3,0-0.5,0-0.7-0.1c-0.1,0.1-0.3-0.1-0.5,0c-0.3-0.1-0.7-0.1-1-0.1 c-0.3,0-0.7-0.1-1,0c-0.2,0-0.5-0.1-0.7-0.1c-0.1,0-0.2,0-0.3,0c-0.1,0-0.2,0-0.3,0c-0.2,0-0.3,0-0.5,0c-0.2,0-0.5-0.1-0.7-0.1 c-0.2,0-0.4,0-0.5,0c-0.2,0.1-0.4-0.1-0.6,0c-0.1,0-0.3,0-0.4-0.1c-0.3,0-0.7-0.1-1.1-0.1c0,0.1,0,0.1,0,0.2 c0.3,0.4,0.6,0.7,0.9,1.1c0.3,0.3,0.5,0.6,0.8,1c0.3,0.4,0.6,0.7,1,1.1c0.1,0.1,0.2,0.3,0.3,0.5c0.3,0.3,0.5,0.6,0.7,0.9 c0.1,0.1,0.2,0.3,0.3,0.5c0.2,0.3,0.5,0.6,0.7,0.9c0.2,0.3,0.4,0.6,0.6,0.8c0.3,0.3,0.5,0.7,0.8,1c0.6,1,2.6,0.8,1.1,1 c-0.2,0-1.1,0.2-1.3,0.3l-0.1,0c0,0,0,0-0.1,0c-0.1,0-0.1,0-0.2,0c-0.1,0-0.1,0-0.1,0c-0.1,0-0.1,0-0.1,0 C160.8,129.2,160.8,129.2,160.6,129.1C160.7,129.2,160.7,129.2,160.6,129.1C160.7,129.2,160.7,129.2,160.6,129.1 C160.7,129.1,160.7,129.1,160.6,129.1z"></path> <path class="st1" d="M156.2,138.3C156.2,138.2,156.1,138.2,156.2,138.3c-0.1-0.2-0.1-0.2-0.1-0.2c0-0.3,0-0.6-0.1-0.8 c-0.1-0.5-0.3-1.1-0.4-1.6c-0.2-0.6-0.3-1.3-0.5-1.8c-0.2-0.6-0.3-1.3-0.5-1.8c-0.1-0.3-0.2-0.6-0.3-0.9c-0.6,0.1-1.3,0.1-2,0.1 c-0.5,0-1.1-0.1-1.6-0.1c-0.4,0-0.7-0.1-1.1-0.2c-0.2,0-0.5-0.2-0.8-0.3c-0.3-0.1-0.5-0.1-0.8-0.3c-0.3-0.2-0.6-0.4-0.9-0.5 c-0.3-0.1-0.5-0.3-0.7-0.5c-0.2-0.2-0.5-0.3-0.7-0.6c-0.2-0.1-0.4-0.3-0.6-0.5c-0.4-0.6-0.9-1-1.2-1.7c-0.1-0.2-0.2-0.5-0.3-0.8 c-0.3-0.7-0.3-1.6-0.2-2.3c0-0.3,0.2-0.7,0.3-1c0.1-0.2,0.3-0.4,0.4-0.5c0.3-0.2,0.5-0.4,0.8-0.6c0.2-0.2,0.4-0.2,0.6-0.3 c0.5-0.1,1-0.2,1.6-0.1c0.4,0.1,0.8,0.1,1.2,0.3c0.3,0.1,0.5,0.2,0.8,0.3c0.4,0.2,0.6,0.4,0.9,0.5c0.4,0.4,1,0.7,1.4,1.1 c0.5,0.5,0.9,0.9,1.3,1.4c0.4,0.5,0.8,1.1,1.2,1.7c0.2,0.3,0.3,0.6,0.4,0.9c0.4,0.8,0.7,1.5,0.9,2.3c0.5-0.1,1-0.1,1.6-0.2 c0.9-0.1,1.7-0.3,2.6-0.4c0.6-0.1,1.2-0.2,1.8-0.1c0.7,0,1.3,0.1,1.9,0.2c0.2,0,0.4,0.1,0.6,0.2c0.2,0.1,0.4,0.1,0.6,0.2 c0.2,0.1,0.4,0.2,0.6,0.3c0.7,0.4,1.2,0.8,1.8,1.3c0.4,0.4,0.7,0.7,1,1.2c0.3,0.4,0.5,0.7,0.7,1.2c0.1,0.3,0.2,0.6,0.2,0.9 c0.1,0.3,0,0.7-0.1,1c-0.1,0.3-0.2,0.5-0.5,0.7c-0.2,0.2-0.5,0.4-0.8,0.4c-0.2,0-0.5,0-0.8-0.1c-0.1,0-0.2-0.2-0.3-0.3l0-0.1 c-0.1-0.3,0.2-0.6,0.9-0.5c0.2,0,0.2-0.1,0.3-0.3c-0.1-0.5-0.2-0.8-0.5-1.2c-0.2-0.3-0.4-0.7-0.6-1c-0.3-0.3-0.7-0.7-1.1-1.1 c-0.3-0.2-0.5-0.4-0.8-0.5c-0.2-0.2-0.5-0.3-0.7-0.4c-0.5-0.2-1-0.4-1.6-0.4c-0.8-0.2-1.5-0.1-2.2-0.1c-0.4,0-0.8,0.1-1.2,0.1 c-0.3,0.1-0.8,0.1-1.1,0.2c-0.5,0.1-1.1,0.2-1.6,0.3c-0.1,0-0.1,0.1-0.2,0.1c0.1,0.5,0.3,1,0.4,1.5c0.1,0.5,0.3,1,0.4,1.5 c0.2,0.7,0.4,1.5,0.6,2.2c0.1,0.3,0.1,0.7,0.2,1.1c0,0.4-0.1,0.8-0.4,1.1c0,0-0.1,0-0.1,0.1c-0.1,0-0.1,0-0.1,0s0-0.1-0.1,0 c-0.1,0-0.1,0-0.1,0C156.3,138.3,156.2,138.3,156.2,138.3z M149.5,128.8c0.1,0,0.1,0,0.2,0c0.3,0.1,0.5,0.3,0.8,0.3 c0.3,0.1,0.5,0.2,0.7,0.2c0.2,0,0.5,0.1,0.7,0.2c0.5,0,1.1,0,1.7,0c-0.1-0.3-0.2-0.5-0.3-0.8c-0.3-0.5-0.5-1-0.8-1.5 c-0.3-0.5-0.6-1-1-1.5c-0.2-0.3-0.4-0.5-0.6-0.7c-0.4-0.4-0.8-0.8-1.2-1.2c-0.3-0.2-0.5-0.4-0.8-0.6c-0.2-0.2-0.6-0.3-0.9-0.5 c-0.2-0.1-0.5-0.2-0.7-0.2c-0.5-0.2-0.9-0.3-1.3-0.3c-0.3,0-0.6,0-0.9,0.1c0,0.2-0.1,0.4-0.1,0.6c-0.1,0.6,0,1.2,0.2,1.8 c0.1,0.3,0.3,0.7,0.5,1c0.3,0.5,0.6,0.9,1,1.3c0.3,0.2,0.5,0.5,0.8,0.7c0.2,0.1,0.4,0.3,0.6,0.4c0.2,0.1,0.4,0.3,0.7,0.4 c0.1,0.1,0.3,0.1,0.4,0.3C149.3,128.7,149.4,128.8,149.5,128.8z"></path> </g> </svg> 