<?xml version="1.0" encoding="UTF-8"?> <!-- Generator: Adobe Illustrator 19.1.0, SVG Export Plug-In . SVG Version: 6.00 Build 0) --> <svg xmlns="http://www.w3.org/2000/svg" xmlns:xlink="http://www.w3.org/1999/xlink" id="Layer_1" x="0px" y="0px" viewBox="0 0 695.2 143.8" style="enable-background:new 0 0 695.2 143.8;" xml:space="preserve"> <path d="M36,100.2V39.6h6.8v25.7l7.9-25.7h7.2l-9.2,28.6l10.3,31.9h-7.2l-9-29.3v29.3H36z"></path> <path d="M78.1,39.6h6.8v60.6h-6.8V39.6z"></path> <path d="M112.1,100.2V46h-8v-6.4h22.7V46h-8v54.2H112.1z"></path> <path d="M157.9,93.1c0.6-1,0.7-2.7,0.7-5.8v-10h6.8v10.2c0,5.2-1,8-2,9.5c-1.1,1.6-3.5,4-8.2,4c-4.4,0-6.9-2.3-8.1-4.1 c-2.3-3.4-2.3-8.2-2.3-11.3V52.5c0-3.5,0.1-7,2.3-10c1.2-1.6,3.8-3.8,8.5-3.8c2.9,0,5.7,1,7.6,3.5c2.5,3.4,2.3,8.2,2.3,11.1V60H159 v-9.1c0-1.4,0-3.4-1-4.6c-0.5-0.6-1.4-1.2-2.8-1.2s-2.3,0.6-2.8,1.2c-1,1.2-1,3.2-1,4.6v36.4c0,3.1,0.1,4.8,0.7,5.8 c0.3,0.5,1.1,1.6,2.9,1.6C156.8,94.6,157.7,93.6,157.9,93.1z"></path> <path d="M193.1,70.6v29.5h-6.8V39.6h6.8v24.7h7.3V39.6h6.8v60.6h-6.8V70.6H193.1z"></path> <path d="M228.9,39.6h17.8V46h-11.1v19h7.1v6.4h-7.1v22.4h11.1v6.4h-17.8V39.6z"></path> <path d="M273.1,53.8l-0.3,0.1l0.3,5.5v40.8h-6.8V39.6h9.6l8,45h0.3l-0.4-5.1V39.6h6.8v60.6h-9L273.1,53.8z"></path> <path d="M351.9,93.1c0.6-1,0.7-2.7,0.7-5.8v-10h6.8v10.2c0,5.2-1,8-2,9.5c-1.1,1.6-3.5,4-8.2,4c-4.4,0-6.9-2.3-8.1-4.1 c-2.3-3.4-2.3-8.2-2.3-11.3V52.5c0-3.5,0.1-7,2.3-10c1.2-1.6,3.8-3.8,8.5-3.8c2.9,0,5.7,1,7.6,3.5c2.5,3.4,2.3,8.2,2.3,11.1V60H353 v-9.1c0-1.4,0-3.4-1-4.6c-0.5-0.6-1.4-1.2-2.8-1.2c-1.4,0-2.3,0.6-2.8,1.2c-1,1.2-1,3.2-1,4.6v36.4c0,3.1,0.1,4.8,0.7,5.8 c0.3,0.5,1.1,1.6,2.9,1.6S351.7,93.6,351.9,93.1z"></path> <path d="M380.3,39.6h17.8V46h-11.1v19h7.1v6.4h-7.1v22.4h11.1v6.4h-17.8V39.6z"></path> <path d="M432.2,100.2c-0.9-1.7-1.2-3.5-1.2-7.2V78.4c0-1.6-0.1-3.3-0.9-4.4c-0.7-1-2.1-1.7-3.6-1.7h-1.9v27.9h-6.8V39.6H428 c2.2,0,6,0.4,8.4,4c1.8,2.7,1.9,6.3,1.9,8v7.3c0,2.4-0.2,5.5-1.7,7.5c-0.9,1.1-2.3,2-4.1,2.3V69c1.6,0.5,2.5,1.4,2.9,1.9 c2.3,2.5,2.3,5.8,2.3,7.7v13c0,3.9,0,6,1.9,8.1v0.4H432.2z M427.1,65.9c1,0,2.8-0.1,3.8-1.6c0.3-0.4,0.9-1.5,0.9-4.7v-8.3 c0-1.3,0-3-1-4.2c-1.1-1.2-3-1.2-4-1.2h-2.3v19.9H427.1z"></path> <path d="M459.2,39.6h17.8V46H466v19h7.1v6.4H466v22.4h11.1v6.4h-17.8V39.6z"></path> <path d="M509.9,100.2l-6.8-49.1h-0.3l0.6,8v41h-6.8V39.6h10.4l5.2,38.9h0.2l5.2-38.9h10.4v60.6h-6.8v-41l0.6-8h-0.3l-6.8,49.1H509.9 z"></path> <path d="M551.9,97.5c-2.5-3.2-2.3-7.5-2.3-10.6V52.9c0-3.1-0.3-7.4,2.3-10.6c1-1.2,3.3-3.5,8-3.5c4.8,0,7.1,2.3,8,3.5 c2.5,3.2,2.3,7.5,2.3,10.6v33.9c0,3.1,0.3,7.4-2.3,10.6c-1,1.2-3.3,3.5-8,3.5C555.2,101,552.8,98.7,551.9,97.5z M556.4,88.3 c0,3,0.2,4.1,0.5,4.7c0.4,0.9,1.5,1.6,3,1.6c1.6,0,2.6-0.8,3-1.6c0.3-0.6,0.5-1.6,0.5-4.7V51.4c0-3-0.2-4.1-0.5-4.7 c-0.4-0.9-1.5-1.6-3-1.6c-1.6,0-2.6,0.8-3,1.6c-0.3,0.6-0.5,1.6-0.5,4.7V88.3z"></path> <path d="M598.4,53.8l-0.3,0.1l0.3,5.5v40.8h-6.8V39.6h9.6l8,45h0.3l-0.4-5.1V39.6h6.8v60.6h-9L598.4,53.8z"></path> <path d="M644.5,100.2V74.8l-9.3-35.2h6.9l5.2,23.6l0.2,2.2h0.3l0.2-2.2l5.2-23.6h6.9l-9.3,35.2v25.4H644.5z"></path> </svg> 